<svg xmlns="http://www.w3.org/2000/svg" viewBox="0 0 154.75 91.85"><defs><style>.cls-1{fill:#9c6b14;}.cls-2{fill:#4f4d47;}.cls-3{fill:#b78730;}</style></defs><title>centre-two-lines-tagline</title><g id="Layer_2" data-name="Layer 2"><g id="Layer_1-2" data-name="Layer 1"><path class="cls-1" d="M14.81,52.8c.31,0,.62,0,.92,0l.89,0a.48.48,0,0,1,0,.23c0,.12,0,.18-.05.19l-.28,0a1.51,1.51,0,0,0-.41.13.33.33,0,0,0-.19.31,3.7,3.7,0,0,0,.26,1l.33.88.44,1.2c.16.44.32.88.49,1.32l.44,1.22q.21.55.33.9c.09.24.14.36.15.38s.08-.19.19-.45.25-.6.41-1,.35-.87.55-1.36l.61-1.51c.2-.51.39-1,.58-1.43q.09-.26.18-.54a2.52,2.52,0,0,0,.07-.48.4.4,0,0,0-.2-.36,1.39,1.39,0,0,0-.44-.17,1.78,1.78,0,0,0-.32,0s-.06-.09-.06-.21a.33.33,0,0,1,.06-.23l.76,0c.25,0,.5,0,.77,0h.55l.39,0,.48,0a.51.51,0,0,1,0,.24c0,.12,0,.18-.05.18a2.88,2.88,0,0,0-.41.08,1,1,0,0,0-.52.3,3.14,3.14,0,0,0-.35.6c-.14.31-.27.6-.38.88-.27.67-.52,1.28-.74,1.84l-.66,1.62c-.22.52-.44,1.06-.67,1.62s-.49,1.18-.78,1.86a1,1,0,0,1-.26.39.48.48,0,0,1-.29.1s-.06,0-.08-.09a.57.57,0,0,0-.06-.15c-.33-.87-.63-1.68-.92-2.43s-.57-1.52-.87-2.3-.63-1.64-1-2.58q-.17-.43-.33-.78a3.8,3.8,0,0,0-.35-.63.52.52,0,0,0-.27-.19,2,2,0,0,0-.38-.11l-.28,0a.63.63,0,0,1,0-.2.82.82,0,0,1,0-.22l.85,0C14.18,52.8,14.47,52.8,14.81,52.8Z"/><path class="cls-1" d="M25.07,60.73c0,.22,0,.42,0,.61a1.5,1.5,0,0,0,.07.47s.09.09.21.13a2.59,2.59,0,0,0,.4.09l.3,0a.36.36,0,0,1,.05.21.25.25,0,0,1-.05.21l-.79,0c-.22,0-.48,0-.77,0s-.53,0-.76,0l-.8,0a.25.25,0,0,1-.05-.21.36.36,0,0,1,.05-.21l.31,0a2.71,2.71,0,0,0,.41-.09c.13,0,.2-.08.21-.13a1.87,1.87,0,0,0,.07-.47c0-.19,0-.39,0-.61V58c0-.1,0-.23,0-.39a1.1,1.1,0,0,0-.07-.37c0-.09-.11-.15-.25-.19L23.2,57h-.27a.76.76,0,0,1,0-.18.31.31,0,0,1,0-.21A8.07,8.07,0,0,0,24,56.37,4.47,4.47,0,0,0,25,56s.08,0,.11.09a.26.26,0,0,1,.05.15,1.67,1.67,0,0,1,0,.25c0,.14,0,.28-.06.42s0,.24,0,.29Zm-1.41-7A.75.75,0,0,1,24.4,53a.67.67,0,0,1,.51.22.69.69,0,0,1,.22.52.75.75,0,0,1-.73.73.69.69,0,0,1-.52-.22A.67.67,0,0,1,23.66,53.75Z"/><path class="cls-1" d="M30.61,56a2.34,2.34,0,0,1,1.18.28,2.46,2.46,0,0,1,.82.75,3.24,3.24,0,0,1,.48,1,3.2,3.2,0,0,1,.16,1,3.09,3.09,0,0,1-.3,1.34,3.9,3.9,0,0,1-.79,1.13,4.13,4.13,0,0,1-1.1.77,2.9,2.9,0,0,1-1.23.28,2.71,2.71,0,0,1-.56,0,3,3,0,0,1-.47-.11.38.38,0,0,0-.06.19V64c0,.22,0,.43,0,.62a1.52,1.52,0,0,0,.07.48s.09.09.21.12a2.48,2.48,0,0,0,.41.08l.31,0a.47.47,0,0,1,.05.22.3.3,0,0,1-.05.21l-.8,0-.78,0-.75,0-.79,0a.25.25,0,0,1-.05-.21.37.37,0,0,1,.05-.22l.3,0a2.57,2.57,0,0,0,.4-.08q.2,0,.21-.12a1.88,1.88,0,0,0,.07-.48c0-.19,0-.4,0-.62V58c0-.1,0-.23,0-.39a1.1,1.1,0,0,0-.07-.37c0-.09-.11-.15-.25-.19L26.87,57H26.6a.76.76,0,0,1,0-.18.31.31,0,0,1,0-.21,8.07,8.07,0,0,0,1.11-.22,4.44,4.44,0,0,0,1-.39s.07,0,.1.09a.37.37,0,0,1,.05.15l-.06.29a2,2,0,0,0-.05.31s0,.06,0,.06l.05,0a3.29,3.29,0,0,1,.49-.36,4.67,4.67,0,0,1,.67-.34A1.76,1.76,0,0,1,30.61,56Zm-.63.87a1.69,1.69,0,0,0-.58.1,1.58,1.58,0,0,0-.47.23c-.13.09-.19.17-.19.24V61a.88.88,0,0,0,.23.62,1.36,1.36,0,0,0,.56.35,1.65,1.65,0,0,0,1.62-.25,2.44,2.44,0,0,0,.65-.94A3.09,3.09,0,0,0,32,59.58a3,3,0,0,0-.6-2A1.83,1.83,0,0,0,30,56.88Z"/><path class="cls-1" d="M37.34,56a1.32,1.32,0,0,1,.79.27,2,2,0,0,1,.59.72,2.25,2.25,0,0,1,.23,1v3a1.07,1.07,0,0,0,.1.49.37.37,0,0,0,.35.2.54.54,0,0,0,.33-.09l.15-.11s0,0,0,.05a.25.25,0,0,1,0,.07.55.55,0,0,1-.08.29l-.29.21a4.49,4.49,0,0,1-.42.24.9.9,0,0,1-.38.1.72.72,0,0,1-.57-.31,1.71,1.71,0,0,1-.32-.65l-.27.23-.51.34c-.19.11-.37.21-.56.3a1.2,1.2,0,0,1-.47.12,1.67,1.67,0,0,1-1.71-1.68,1.21,1.21,0,0,1,.25-.77,1.24,1.24,0,0,1,.48-.41l.94-.32L37,59l.66-.25a.24.24,0,0,0,.15-.12.72.72,0,0,0,0-.26V58a1.43,1.43,0,0,0-.17-.65,1.67,1.67,0,0,0-.45-.54,1.05,1.05,0,0,0-.64-.22.66.66,0,0,0-.56.24,1.59,1.59,0,0,0-.25.68c-.09.47-.32.7-.69.7a.42.42,0,0,1-.37-.19.79.79,0,0,1-.12-.42.86.86,0,0,1,0-.17.5.5,0,0,1,.07-.19,5.34,5.34,0,0,1,.64-.5,4.8,4.8,0,0,1,1-.49A2.81,2.81,0,0,1,37.34,56Zm-.78,5.71a1.53,1.53,0,0,0,.56-.12,3,3,0,0,0,.51-.26c.14-.1.21-.17.21-.22v-2l-.72.22-.65.21a1.63,1.63,0,0,0-.64.44,1,1,0,0,0,0,1.41A.9.9,0,0,0,36.56,61.75Z"/><path class="cls-1" d="M43,56a3.68,3.68,0,0,1,.73.07,6.36,6.36,0,0,0,.77.13,6.61,6.61,0,0,1,.12.77c0,.3.05.57.06.83,0,0,0,.08-.15.08l-.13,0-.12-.06a3.07,3.07,0,0,0-.25-.58,2,2,0,0,0-.42-.53.81.81,0,0,0-.56-.22,1.06,1.06,0,0,0-.78.26.91.91,0,0,0-.26.65,1,1,0,0,0,.18.61,1.69,1.69,0,0,0,.47.4l.63.37.72.44a2.81,2.81,0,0,1,.67.56,1.14,1.14,0,0,1,.29.78,1.83,1.83,0,0,1-.32,1,2.29,2.29,0,0,1-.82.72,2.45,2.45,0,0,1-1.11.26,3.15,3.15,0,0,1-.87-.1c-.24-.06-.52-.13-.84-.19a3.46,3.46,0,0,1-.12-.45c0-.19-.07-.38-.1-.58s0-.36,0-.48A.44.44,0,0,1,41,60.7a.21.21,0,0,1,.12,0,2.16,2.16,0,0,0,.32.62,1.89,1.89,0,0,0,.55.54,1.25,1.25,0,0,0,.72.22,1.08,1.08,0,0,0,.75-.27,1,1,0,0,0,.3-.78,1,1,0,0,0-.27-.73,2.7,2.7,0,0,0-.67-.49L42,59.38a3.33,3.33,0,0,1-.77-.62,1.33,1.33,0,0,1-.34-.95,1.51,1.51,0,0,1,.31-1,2,2,0,0,1,.78-.62A2.53,2.53,0,0,1,43,56Z"/><path class="cls-1" d="M48.36,56a3.5,3.5,0,0,1,.72.07,7,7,0,0,0,.78.13A6.61,6.61,0,0,1,50,57c0,.3.05.57.06.83,0,0,0,.08-.15.08l-.13,0a.31.31,0,0,1-.13-.06,2.54,2.54,0,0,0-.25-.58,1.7,1.7,0,0,0-.42-.53.79.79,0,0,0-.56-.22,1.06,1.06,0,0,0-.78.26.9.9,0,0,0-.25.65,1,1,0,0,0,.18.61,1.69,1.69,0,0,0,.47.4l.62.37.72.44a2.86,2.86,0,0,1,.68.56,1.18,1.18,0,0,1,.28.78,1.83,1.83,0,0,1-.32,1,2.21,2.21,0,0,1-.82.72,2.45,2.45,0,0,1-1.11.26,3.15,3.15,0,0,1-.87-.1c-.24-.06-.52-.13-.84-.19a3.46,3.46,0,0,1-.12-.45,5.4,5.4,0,0,1-.09-.58,3.28,3.28,0,0,1,0-.48.44.44,0,0,1,.27-.09.21.21,0,0,1,.12,0,2.12,2.12,0,0,0,.31.62,1.92,1.92,0,0,0,.56.54,1.25,1.25,0,0,0,.72.22,1.08,1.08,0,0,0,.75-.27,1,1,0,0,0,.3-.78,1,1,0,0,0-.27-.73,2.76,2.76,0,0,0-.68-.49l-.84-.46a3.55,3.55,0,0,1-.77-.62,1.38,1.38,0,0,1-.34-.95,1.57,1.57,0,0,1,.31-1,2.1,2.1,0,0,1,.79-.62A2.53,2.53,0,0,1,48.36,56Z"/><path class="cls-1" d="M54.43,56a1.27,1.27,0,0,1,.78.27,1.91,1.91,0,0,1,.59.72,2.25,2.25,0,0,1,.23,1v3a1.07,1.07,0,0,0,.1.49.37.37,0,0,0,.35.2.54.54,0,0,0,.33-.09l.15-.11s0,0,0,.05a.25.25,0,0,1,0,.07.55.55,0,0,1-.08.29,3.91,3.91,0,0,1-.71.45.86.86,0,0,1-.38.1.69.69,0,0,1-.56-.31,1.74,1.74,0,0,1-.33-.65l-.27.23-.5.34-.57.3a1.2,1.2,0,0,1-.47.12,1.67,1.67,0,0,1-1.21-.48,1.64,1.64,0,0,1-.5-1.2,1.31,1.31,0,0,1,.74-1.18l.93-.32,1-.34.66-.25a.24.24,0,0,0,.15-.12.72.72,0,0,0,0-.26V58a1.42,1.42,0,0,0-.16-.65,1.67,1.67,0,0,0-.45-.54,1.08,1.08,0,0,0-.65-.22.64.64,0,0,0-.55.24,1.59,1.59,0,0,0-.26.68c-.09.47-.32.7-.69.7A.39.39,0,0,1,51.8,58a.72.72,0,0,1-.13-.42.86.86,0,0,1,0-.17.5.5,0,0,1,.07-.19,5.58,5.58,0,0,1,.65-.5,4.71,4.71,0,0,1,.95-.49A2.86,2.86,0,0,1,54.43,56Zm-.78,5.71a1.48,1.48,0,0,0,.55-.12,3,3,0,0,0,.51-.26c.14-.1.21-.17.21-.22v-2l-.72.22-.64.21a1.67,1.67,0,0,0-.65.44,1.07,1.07,0,0,0,0,1.41A.92.92,0,0,0,53.65,61.75Z"/><path class="cls-1" d="M61.92,56a1.87,1.87,0,0,1,1.2.33,1.68,1.68,0,0,1,.54,1,8.43,8.43,0,0,1,.15,1.75v2.23a1.87,1.87,0,0,0,.07.47s.09.09.22.13a2.35,2.35,0,0,0,.4.09l.3,0a.46.46,0,0,1,0,.21.3.3,0,0,1,0,.21l-.79,0c-.23,0-.48,0-.77,0s-.54,0-.77,0l-.79,0a.25.25,0,0,1,0-.21.36.36,0,0,1,0-.21L62,62a2.71,2.71,0,0,0,.41-.09c.13,0,.2-.08.21-.13a1.87,1.87,0,0,0,.07-.47V59.26a6.6,6.6,0,0,0-.12-1.43,1.21,1.21,0,0,0-.43-.74,1.52,1.52,0,0,0-.89-.23,1.24,1.24,0,0,0-.59.18,3.37,3.37,0,0,0-.56.36q-.24.2-.24.27v3.06c0,.22,0,.42,0,.61a1.5,1.5,0,0,0,.07.47s.09.09.21.13a2.59,2.59,0,0,0,.4.09l.3,0a.36.36,0,0,1,0,.21.25.25,0,0,1,0,.21l-.79,0c-.22,0-.48,0-.77,0s-.53,0-.76,0l-.8,0a.3.3,0,0,1,0-.21.36.36,0,0,1,0-.21L58,62a2.71,2.71,0,0,0,.41-.09c.13,0,.2-.08.21-.13a1.87,1.87,0,0,0,.07-.47c0-.19,0-.39,0-.61V58.06c0-.1,0-.24,0-.42a1.2,1.2,0,0,0-.07-.4c0-.09-.11-.15-.25-.19L58,57h-.27a.76.76,0,0,1,0-.18.31.31,0,0,1,0-.21,8.07,8.07,0,0,0,1.11-.22,4.47,4.47,0,0,0,1-.39s.08,0,.11.09a.29.29,0,0,1,.06.15,2,2,0,0,1,0,.23c0,.13,0,.25,0,.37a1.36,1.36,0,0,0,0,.24s0,.06,0,.06l0,0a3.47,3.47,0,0,1,.49-.42,4.89,4.89,0,0,1,.74-.46A1.76,1.76,0,0,1,61.92,56Z"/><path class="cls-1" d="M68.5,56a1.27,1.27,0,0,1,.78.27,1.93,1.93,0,0,1,.6.72,2.25,2.25,0,0,1,.22,1v3a1.07,1.07,0,0,0,.11.49.36.36,0,0,0,.34.2.54.54,0,0,0,.33-.09l.15-.11s0,0,0,.05a.25.25,0,0,1,0,.07A.55.55,0,0,1,71,62a2,2,0,0,1-.29.21,2.86,2.86,0,0,1-.42.24.86.86,0,0,1-.38.1.69.69,0,0,1-.56-.31,1.58,1.58,0,0,1-.32-.65l-.28.23-.5.34-.56.3a1.29,1.29,0,0,1-.48.12A1.67,1.67,0,0,1,66,62.06a1.64,1.64,0,0,1-.5-1.2,1.31,1.31,0,0,1,.74-1.18l.94-.32,1-.34.66-.25a.24.24,0,0,0,.15-.12.72.72,0,0,0,0-.26V58a1.42,1.42,0,0,0-.16-.65,1.67,1.67,0,0,0-.45-.54,1.08,1.08,0,0,0-.65-.22.64.64,0,0,0-.55.24,1.59,1.59,0,0,0-.26.68c-.09.47-.32.7-.69.7a.39.39,0,0,1-.36-.19.72.72,0,0,1-.13-.42.86.86,0,0,1,0-.17.5.5,0,0,1,.07-.19,5.58,5.58,0,0,1,.65-.5,5,5,0,0,1,1-.49A2.86,2.86,0,0,1,68.5,56Zm-.78,5.71a1.48,1.48,0,0,0,.55-.12,3,3,0,0,0,.51-.26c.14-.1.21-.17.21-.22v-2l-.72.22-.64.21A1.67,1.67,0,0,0,67,60a1.07,1.07,0,0,0,0,1.41A.92.92,0,0,0,67.72,61.75Z"/><path class="cls-1" d="M78,52.8c.25,0,.47,0,.66,0l.52,0c.06.19.17.49.34.89s.36.87.58,1.41l.73,1.73c.26.61.52,1.22.76,1.82l.69,1.69a.06.06,0,0,0,.06,0s0,0,.06-.06l.78-2c.23-.59.46-1.19.7-1.78s.49-1.25.77-2c.09-.23.19-.48.29-.75s.22-.61.36-1c.47,0,.85,0,1.15,0l.88,0,.75,0a2.66,2.66,0,0,1,0,.42l-.34,0a3.12,3.12,0,0,0-.44.09.46.46,0,0,0-.26.14.9.9,0,0,0-.06.27c0,.11,0,.21,0,.3q0,.38,0,1.14c0,.5,0,1.08,0,1.71s0,1.26,0,1.88,0,1.17,0,1.65c0,.28,0,.54,0,.79a2.1,2.1,0,0,0,.14.63.35.35,0,0,0,.27.16,3.4,3.4,0,0,0,.46.08l.29,0a.4.4,0,0,1,0,.25.49.49,0,0,1,0,.17l-.85,0c-.27,0-.57,0-.89,0s-.64,0-.88,0l-.89,0a.76.76,0,0,1,0-.18.44.44,0,0,1,0-.24l.29,0L85.6,62a1.31,1.31,0,0,0,.28-.09c.05,0,.08-.11.11-.25s0-.26,0-.36,0-.25,0-.43,0-.31,0-.42c0-.71,0-1.4-.06-2.05s0-1.32-.06-2-.05-1.42-.08-2.21a.8.8,0,0,0,0-.16c0-.08-.05-.12-.1-.12s0,0-.08.1l-.83,2.08c-.26.64-.5,1.26-.74,1.85l-.73,1.82-.79,2-.13.24a2.84,2.84,0,0,1-.22.34.33.33,0,0,1-.2.17.15.15,0,0,1-.11,0l0,0-3.56-8.54c0,.64,0,1.3,0,2s0,1.34,0,2,0,1.21,0,1.73,0,.93,0,1.24,0,.49,0,.52a2,2,0,0,0,0,.23,1.09,1.09,0,0,0,0,.22c0,.07.14.12.31.16a4.51,4.51,0,0,0,.53.09l.33,0a.27.27,0,0,1,0,.22.91.91,0,0,1,0,.2l-.75,0c-.21,0-.48,0-.8,0s-.62,0-.85,0l-.85,0a.59.59,0,0,1,0-.18.43.43,0,0,1,0-.24l.35,0,.51-.09a.55.55,0,0,0,.32-.15.8.8,0,0,0,.13-.32A4.05,4.05,0,0,0,77.4,61c0-.87.06-1.72.08-2.53s0-1.53.06-2.18,0-1.17,0-1.57,0-.64,0-.71v-.32a1.07,1.07,0,0,0-.06-.27c0-.06-.1-.11-.24-.16a3.63,3.63,0,0,0-.45-.1l-.33,0a.63.63,0,0,1,0-.2.82.82,0,0,1,0-.22l.56,0,.42,0Z"/><path class="cls-1" d="M90.53,58.8a3.22,3.22,0,0,0,.31,1.56,2.2,2.2,0,0,0,.88.93,2.39,2.39,0,0,0,1.2.31,2,2,0,0,0,.74-.14,2.58,2.58,0,0,0,.55-.33,3.49,3.49,0,0,0,.32-.3s0,0,.06.06a.17.17,0,0,1,.06.14.54.54,0,0,1-.09.27,3.16,3.16,0,0,1-.42.5,2.67,2.67,0,0,1-.72.52,2.18,2.18,0,0,1-1,.22,2.82,2.82,0,0,1-1.51-.4,2.87,2.87,0,0,1-1-1.1,3.14,3.14,0,0,1-.38-1.54,3.63,3.63,0,0,1,.26-1.37A4.16,4.16,0,0,1,90.44,57a3.61,3.61,0,0,1,.94-.74,2.11,2.11,0,0,1,1-.27,2.35,2.35,0,0,1,1.09.22,2,2,0,0,1,1,1.22,1.84,1.84,0,0,1,.1.55,1.36,1.36,0,0,1-.07.5.31.31,0,0,1-.29.19l-.53,0-.91,0-1,0-.84,0Zm.07-.54H93a.41.41,0,0,0,.24-.08.38.38,0,0,0,.11-.27,1.33,1.33,0,0,0-.11-.51,1.61,1.61,0,0,0-.38-.6.93.93,0,0,0-.71-.27,1.07,1.07,0,0,0-.76.27,2,2,0,0,0-.48.6,3.66,3.66,0,0,0-.24.59A1.14,1.14,0,0,0,90.6,58.26Z"/><path class="cls-1" d="M99.25,56a4.4,4.4,0,0,1,.57.05,2.52,2.52,0,0,1,.43.1s.08-.1.08-.3v-1.6c0-.11,0-.25,0-.4a1.1,1.1,0,0,0-.07-.37q-.06-.16-.33-.21a3.48,3.48,0,0,0-.57,0s0-.06,0-.19,0-.19,0-.2a5.59,5.59,0,0,0,1.08-.22,6.91,6.91,0,0,0,1-.37s.08,0,.11.09a.23.23,0,0,1,0,.15,5.28,5.28,0,0,0-.16,1.28V60c0,.28,0,.56,0,.85a2.66,2.66,0,0,0,.08.59.41.41,0,0,0,.36.2l.42,0h.08s0,0,0,.09v.09a.43.43,0,0,1,0,.12c0,.06,0,.09-.08.09a4.39,4.39,0,0,0-.82.12c-.29.07-.55.14-.75.21l-.33.09s-.07,0-.09-.1a.42.42,0,0,1,0-.18v-.51c0-.09,0-.12,0-.09a2.3,2.3,0,0,1-.44.33,5.14,5.14,0,0,1-.74.38,1.89,1.89,0,0,1-.77.17,2.12,2.12,0,0,1-1.25-.41,3.11,3.11,0,0,1-1-1.12,3.52,3.52,0,0,1-.37-1.6,2.61,2.61,0,0,1,.36-1.34A3.87,3.87,0,0,1,97,57a5,5,0,0,1,1.14-.72A2.87,2.87,0,0,1,99.25,56Zm-.48.61a1.36,1.36,0,0,0-1,.36,2.26,2.26,0,0,0-.62.9,3.35,3.35,0,0,0,0,2.44,2.27,2.27,0,0,0,.71,1,1.77,1.77,0,0,0,1.12.36,2,2,0,0,0,.89-.2q.39-.21.39-.39v-3.7q0-.26-.48-.48A2.32,2.32,0,0,0,98.77,56.62Z"/><path class="cls-1" d="M105.36,60.73c0,.22,0,.42,0,.61a1.5,1.5,0,0,0,.07.47s.09.09.21.13a2.59,2.59,0,0,0,.4.09l.3,0a.36.36,0,0,1,.05.21.25.25,0,0,1-.05.21l-.79,0c-.22,0-.48,0-.77,0s-.53,0-.76,0l-.8,0a.25.25,0,0,1,0-.21.36.36,0,0,1,0-.21l.31,0a2.71,2.71,0,0,0,.41-.09c.13,0,.2-.08.21-.13a1.87,1.87,0,0,0,.07-.47c0-.19,0-.39,0-.61V58c0-.1,0-.23,0-.39a1.1,1.1,0,0,0-.07-.37c0-.09-.11-.15-.25-.19l-.42-.06h-.27a.76.76,0,0,1,0-.18.31.31,0,0,1,0-.21,8.07,8.07,0,0,0,1.11-.22,4.47,4.47,0,0,0,1-.39s.08,0,.11.09a.26.26,0,0,1,0,.15,1.67,1.67,0,0,1,0,.25l-.06.42c0,.14,0,.24,0,.29Zm-1.41-7a.75.75,0,0,1,.74-.74.67.67,0,0,1,.51.22.69.69,0,0,1,.22.52.75.75,0,0,1-.73.73.69.69,0,0,1-.52-.22A.67.67,0,0,1,104,53.75Z"/><path class="cls-1" d="M109,56.1h1.88s.08,0,.08.16a.63.63,0,0,1-.21.44H109v3.83c0,.8.32,1.2,1,1.2a1.32,1.32,0,0,0,.6-.13,2.12,2.12,0,0,0,.34-.2s0,0,0,.09a.33.33,0,0,1-.06.23c-.07.08-.18.18-.32.31a2.49,2.49,0,0,1-.52.35,1.45,1.45,0,0,1-.66.15,2.06,2.06,0,0,1-.73-.14,1.2,1.2,0,0,1-.57-.48,1.76,1.76,0,0,1-.23-1V56.7H107s0,0-.05-.05a.34.34,0,0,1,0-.09s0-.06.09-.14l.28-.32h.54v-.91l.35-.39c.14-.14.26-.28.37-.4l.18-.2a.2.2,0,0,1,.14-.06c.06,0,.09,0,.09,0Z"/><path class="cls-1" d="M114.71,56a1.32,1.32,0,0,1,.79.27,2,2,0,0,1,.59.72,2.25,2.25,0,0,1,.22,1v3a1.07,1.07,0,0,0,.11.49.36.36,0,0,0,.34.2.54.54,0,0,0,.33-.09l.15-.11s0,0,.05.05a.2.2,0,0,1,0,.07.54.54,0,0,1-.07.29l-.29.21a4.49,4.49,0,0,1-.42.24.93.93,0,0,1-.39.1.71.71,0,0,1-.56-.31,1.71,1.71,0,0,1-.32-.65,2.59,2.59,0,0,1-.28.23c-.14.11-.31.22-.5.34l-.56.3a1.25,1.25,0,0,1-.47.12,1.69,1.69,0,0,1-1.22-.48,1.63,1.63,0,0,1-.49-1.2,1.21,1.21,0,0,1,.25-.77,1.17,1.17,0,0,1,.48-.41l.94-.32,1-.34.65-.25a.24.24,0,0,0,.15-.12.72.72,0,0,0,0-.26V58a1.42,1.42,0,0,0-.16-.65,1.67,1.67,0,0,0-.45-.54,1.05,1.05,0,0,0-.64-.22.66.66,0,0,0-.56.24,1.59,1.59,0,0,0-.25.68c-.09.47-.32.7-.69.7a.42.42,0,0,1-.37-.19.8.8,0,0,1-.13-.42.86.86,0,0,1,0-.17.49.49,0,0,1,.08-.19,5.34,5.34,0,0,1,.64-.5,5,5,0,0,1,1-.49A2.9,2.9,0,0,1,114.71,56Zm-.78,5.71a1.53,1.53,0,0,0,.56-.12,4,4,0,0,0,.51-.26c.13-.1.2-.17.2-.22v-2l-.71.22-.65.21a1.63,1.63,0,0,0-.64.44,1,1,0,0,0,0,1.41A.9.9,0,0,0,113.93,61.75Z"/><path class="cls-1" d="M119.82,56.1h1.89c.05,0,.07,0,.07.16a.63.63,0,0,1-.21.44h-1.75v3.83c0,.8.32,1.2,1,1.2a1.32,1.32,0,0,0,.6-.13,2.4,2.4,0,0,0,.35-.2s0,0,0,.09a.33.33,0,0,1-.06.23,3.27,3.27,0,0,1-.32.31,2.25,2.25,0,0,1-.52.35,1.45,1.45,0,0,1-.66.15,2,2,0,0,1-.72-.14,1.17,1.17,0,0,1-.58-.48,1.76,1.76,0,0,1-.22-1V56.7h-.86s0,0,0-.05a.51.51,0,0,1,0-.09s0-.06.09-.14l.29-.32h.54v-.91l.35-.39.37-.4a1.49,1.49,0,0,1,.18-.2.17.17,0,0,1,.14-.06c.05,0,.08,0,.08,0Z"/><path class="cls-1" d="M124.67,60.73c0,.22,0,.42,0,.61a1.87,1.87,0,0,0,.07.47s.09.09.22.13a2.23,2.23,0,0,0,.39.09l.3,0a.44.44,0,0,1,.06.21.29.29,0,0,1-.06.21l-.78,0c-.23,0-.48,0-.77,0s-.54,0-.77,0l-.79,0a.29.29,0,0,1-.06-.21.44.44,0,0,1,.06-.21l.3,0a2.59,2.59,0,0,0,.42-.09c.13,0,.2-.08.21-.13a1.53,1.53,0,0,0,.06-.47c0-.19,0-.39,0-.61V58c0-.1,0-.23,0-.39a.92.92,0,0,0-.06-.37c0-.09-.12-.15-.26-.19L122.8,57h-.27a.76.76,0,0,1,0-.18.31.31,0,0,1,0-.21,8.07,8.07,0,0,0,1.11-.22,4.55,4.55,0,0,0,1-.39s.07,0,.11.09a.37.37,0,0,1,0,.15s0,.11,0,.25,0,.28,0,.42a2.52,2.52,0,0,0,0,.29Zm-1.4-7a.72.72,0,0,1,.21-.52.72.72,0,0,1,1,0,.72.72,0,0,1,.21.52.69.69,0,0,1-.21.51.72.72,0,0,1-1,0A.69.69,0,0,1,123.27,53.75Z"/><path class="cls-1" d="M129.68,56a3.16,3.16,0,0,1,1.67.42,3,3,0,0,1,1.08,1.14,3.51,3.51,0,0,1,.38,1.64,3.55,3.55,0,0,1-.4,1.7,3.2,3.2,0,0,1-1.11,1.2,3,3,0,0,1-1.59.44A3.12,3.12,0,0,1,128,62.1a2.9,2.9,0,0,1-1.1-1.15,3.73,3.73,0,0,1,0-3.34,3.18,3.18,0,0,1,1.12-1.18A3,3,0,0,1,129.68,56Zm-.17.5a1.31,1.31,0,0,0-1,.37,2.08,2.08,0,0,0-.54.94,4.37,4.37,0,0,0-.17,1.21,4.62,4.62,0,0,0,.23,1.41,3.12,3.12,0,0,0,.69,1.16,1.53,1.53,0,0,0,1.12.47,1.34,1.34,0,0,0,1-.37,2.14,2.14,0,0,0,.53-1,4.44,4.44,0,0,0-.08-2.62,3.12,3.12,0,0,0-.69-1.16A1.48,1.48,0,0,0,129.51,56.49Z"/><path class="cls-1" d="M138.13,56a1.87,1.87,0,0,1,1.2.33,1.74,1.74,0,0,1,.55,1,9.29,9.29,0,0,1,.14,1.75v1.62c0,.22,0,.42,0,.61a1.53,1.53,0,0,0,.06.47s.1.09.22.13a2.59,2.59,0,0,0,.4.09l.3,0a.46.46,0,0,1,.05.21.25.25,0,0,1-.05.21l-.79,0c-.22,0-.48,0-.77,0s-.53,0-.77,0l-.79,0a.25.25,0,0,1,0-.21.36.36,0,0,1,0-.21l.31,0a2.71,2.71,0,0,0,.41-.09c.13,0,.2-.08.21-.13a1.87,1.87,0,0,0,.07-.47V59.26a6.6,6.6,0,0,0-.12-1.43,1.21,1.21,0,0,0-.43-.74,1.49,1.49,0,0,0-.88-.23,1.27,1.27,0,0,0-.6.18,3.37,3.37,0,0,0-.56.36q-.24.2-.24.27v3.06c0,.22,0,.42,0,.61a1.87,1.87,0,0,0,.07.47s.09.09.21.13a2.59,2.59,0,0,0,.4.09l.3,0a.36.36,0,0,1,0,.21.25.25,0,0,1,0,.21l-.79,0c-.22,0-.48,0-.77,0s-.53,0-.76,0l-.8,0a.3.3,0,0,1-.05-.21.46.46,0,0,1,.05-.21l.31,0a2.47,2.47,0,0,0,.41-.09c.13,0,.2-.08.21-.13a1.5,1.5,0,0,0,.07-.47c0-.19,0-.39,0-.61V58.06c0-.1,0-.24,0-.42a1,1,0,0,0-.07-.4c0-.09-.11-.15-.25-.19a3,3,0,0,0-.42-.06h-.27a.76.76,0,0,1,0-.18.31.31,0,0,1,0-.21,8.07,8.07,0,0,0,1.11-.22,4.47,4.47,0,0,0,1-.39s.08,0,.12.09a.37.37,0,0,1,0,.15,2,2,0,0,1,0,.23c0,.13,0,.25,0,.37a1.36,1.36,0,0,0,0,.24s0,.06,0,.06l0,0a4.18,4.18,0,0,1,.49-.42,4.89,4.89,0,0,1,.74-.46A1.76,1.76,0,0,1,138.13,56Z"/><path class="cls-1" d="M3,71.24a1.32,1.32,0,0,1,.79.27,2,2,0,0,1,.59.72,2.25,2.25,0,0,1,.23,1v3a1,1,0,0,0,.1.49A.36.36,0,0,0,5,77a.56.56,0,0,0,.33-.09l.14-.1s0,0,0,0a.31.31,0,0,1,0,.08.51.51,0,0,1-.08.28l-.29.21a4.49,4.49,0,0,1-.42.24.93.93,0,0,1-.38.11.74.74,0,0,1-.57-.32,1.68,1.68,0,0,1-.32-.64L3.25,77a5.64,5.64,0,0,1-.51.34,3.82,3.82,0,0,1-.56.3,1.08,1.08,0,0,1-.47.13A1.62,1.62,0,0,1,.5,77.26,1.6,1.6,0,0,1,0,76.07a1.19,1.19,0,0,1,.25-.77,1.16,1.16,0,0,1,.48-.41l.94-.33,1-.33L3.3,74a.27.27,0,0,0,.15-.11.75.75,0,0,0,0-.26v-.39a1.4,1.4,0,0,0-.17-.65A1.48,1.48,0,0,0,2.86,72a1,1,0,0,0-.64-.22.66.66,0,0,0-.56.24,1.54,1.54,0,0,0-.25.67c-.09.47-.32.71-.69.71a.43.43,0,0,1-.37-.2.79.79,0,0,1-.12-.42s0-.08,0-.17a.9.9,0,0,1,.08-.19A5.43,5.43,0,0,1,1,72a4.81,4.81,0,0,1,1-.5A3,3,0,0,1,3,71.24ZM2.2,77a1.53,1.53,0,0,0,.56-.12,2.42,2.42,0,0,0,.51-.26c.14-.09.21-.17.21-.22v-2l-.72.23-.65.21a1.61,1.61,0,0,0-.64.43,1.05,1.05,0,0,0,0,1.42A.92.92,0,0,0,2.2,77Z"/><path class="cls-1" d="M8.6,71.23a3.06,3.06,0,0,1,.73.07c.19,0,.45.08.77.12a6.47,6.47,0,0,1,.12.78c0,.29,0,.57.06.83,0,0,0,.07-.15.07H10A.34.34,0,0,1,9.88,73a3.14,3.14,0,0,0-.25-.59,2.23,2.23,0,0,0-.42-.53.86.86,0,0,0-.56-.22,1,1,0,0,0-.78.27.89.89,0,0,0-.26.65,1,1,0,0,0,.18.61,1.69,1.69,0,0,0,.47.4l.63.37.72.43a3.07,3.07,0,0,1,.67.56,1.17,1.17,0,0,1,.29.79,1.78,1.78,0,0,1-.32,1,2.11,2.11,0,0,1-.82.72,2.33,2.33,0,0,1-1.11.26,3.63,3.63,0,0,1-.87-.09c-.24-.07-.52-.13-.84-.19a3.46,3.46,0,0,1-.12-.45c0-.19-.07-.39-.1-.59s0-.36,0-.47a.44.44,0,0,1,.27-.09.21.21,0,0,1,.12,0,2.3,2.3,0,0,0,.32.62,2.17,2.17,0,0,0,.55.54,1.32,1.32,0,0,0,.72.21A1.08,1.08,0,0,0,9.08,77a1.13,1.13,0,0,0,0-1.5,2.72,2.72,0,0,0-.67-.5l-.84-.45A3.13,3.13,0,0,1,6.83,74,1.32,1.32,0,0,1,6.49,73a1.48,1.48,0,0,1,.31-.94,1.91,1.91,0,0,1,.78-.62A2.37,2.37,0,0,1,8.6,71.23Z"/><path class="cls-1" d="M23,68a1.93,1.93,0,0,0,.46-.08,3.13,3.13,0,0,0,.42-.13.49.49,0,0,1,.17-.06l.1,0c.05.45.11.88.17,1.3s.14.83.22,1.22l-.1.07a.27.27,0,0,1-.18,0c-.11,0-.18,0-.21-.07a3.46,3.46,0,0,0-.5-1.28,1,1,0,0,0-.9-.51H20.75v7.47c0,.21,0,.42,0,.61a1.78,1.78,0,0,0,.07.46s.1.1.24.14a2.14,2.14,0,0,0,.44.08l.32,0a.44.44,0,0,1,.06.21.29.29,0,0,1-.06.21l-.86,0-.84,0-.86,0-.88,0a.29.29,0,0,1-.06-.21.44.44,0,0,1,.06-.21,2.48,2.48,0,0,0,.33,0,2.11,2.11,0,0,0,.45-.08c.15,0,.23-.09.24-.14a1.47,1.47,0,0,0,.06-.46c0-.19,0-.4,0-.61V68.47H17.59a1,1,0,0,0-.9.51,3.65,3.65,0,0,0-.51,1.28s-.1.07-.21.07a.25.25,0,0,1-.17,0l-.09-.07c.08-.39.15-.8.21-1.22s.11-.85.16-1.3a.35.35,0,0,1,.18,0l.16,0a2.19,2.19,0,0,0,.39.13,1.41,1.41,0,0,0,.42.07Z"/><path class="cls-1" d="M26.94,71.24a1.3,1.3,0,0,1,.79.27,1.91,1.91,0,0,1,.59.72,2.25,2.25,0,0,1,.23,1v3a1,1,0,0,0,.1.49A.36.36,0,0,0,29,77a.54.54,0,0,0,.33-.09l.15-.1s0,0,0,0a.31.31,0,0,1,0,.08.51.51,0,0,1-.08.28l-.29.21a3.5,3.5,0,0,1-.42.24.89.89,0,0,1-.38.11.71.71,0,0,1-.56-.32,1.57,1.57,0,0,1-.33-.64l-.27.22c-.15.11-.32.23-.5.34a4.5,4.5,0,0,1-.57.3,1.08,1.08,0,0,1-.47.13,1.64,1.64,0,0,1-1.21-.49,1.6,1.6,0,0,1-.5-1.19,1.19,1.19,0,0,1,.25-.77,1.12,1.12,0,0,1,.49-.41l.93-.33,1-.33.66-.26a.27.27,0,0,0,.15-.11.75.75,0,0,0,0-.26v-.39a1.4,1.4,0,0,0-.17-.65,1.48,1.48,0,0,0-.45-.54,1,1,0,0,0-.64-.22.64.64,0,0,0-.55.24,1.54,1.54,0,0,0-.26.67c-.09.47-.32.71-.69.71a.43.43,0,0,1-.37-.2.79.79,0,0,1-.12-.42,1,1,0,0,1,0-.17.58.58,0,0,1,.07-.19,5.68,5.68,0,0,1,.65-.49,4.72,4.72,0,0,1,.95-.5A3,3,0,0,1,26.94,71.24ZM26.17,77a1.52,1.52,0,0,0,.55-.12,2.42,2.42,0,0,0,.51-.26c.14-.09.21-.17.21-.22v-2l-.72.23-.64.21a1.65,1.65,0,0,0-.65.43,1.08,1.08,0,0,0,0,1.42A.94.94,0,0,0,26.17,77Z"/><path class="cls-1" d="M34.83,73v-.06c0-.1,0-.22,0-.36a1,1,0,0,0-.09-.37.49.49,0,0,0-.39-.26,2.82,2.82,0,0,0-.43,0,.47.47,0,0,1,0-.38c.38,0,.74,0,1.09-.1a6.08,6.08,0,0,0,.92-.2s.07.06.1.15a1,1,0,0,1,.05.21,1,1,0,0,0-.07.36,5.53,5.53,0,0,0,0,.59v3.07c0,.08,0,.24,0,.47a4,4,0,0,0,.08.65q0,.18.33.21l.44,0h.09A.07.07,0,0,1,37,77a.34.34,0,0,1,0,.09.9.9,0,0,1,0,.12c0,.07,0,.11-.09.11a4.39,4.39,0,0,0-.82.12l-.75.2-.33.1s-.07,0-.09-.08a.5.5,0,0,1,0-.16v-.68s0-.06,0-.07a2.91,2.91,0,0,1-.54.44,3.3,3.3,0,0,1-.75.38,2.24,2.24,0,0,1-.78.15,1.5,1.5,0,0,1-.94-.27,1.81,1.81,0,0,1-.56-.72,3.34,3.34,0,0,1-.26-.95,6.75,6.75,0,0,1-.07-1V73c0-.1,0-.23,0-.39a.94.94,0,0,0-.11-.4.49.49,0,0,0-.39-.26,2.82,2.82,0,0,0-.43,0,.27.27,0,0,1,0-.17.3.3,0,0,1,0-.21c.38,0,.74,0,1.09-.1a5.68,5.68,0,0,0,.91-.2s.08,0,.12.12a.71.71,0,0,1,.05.18,1.31,1.31,0,0,0-.08.39c0,.2,0,.41,0,.62v2.16a3.15,3.15,0,0,0,.36,1.71,1.2,1.2,0,0,0,1.11.55,1.51,1.51,0,0,0,.63-.13,1.48,1.48,0,0,0,.5-.32.53.53,0,0,0,.21-.36Z"/><path class="cls-1" d="M41.64,76.65a3,3,0,0,1,1.11.21,2.43,2.43,0,0,1,.84.56,1.1,1.1,0,0,1,.32.76,1.77,1.77,0,0,1-.31.93,3.66,3.66,0,0,1-.83.9,4.37,4.37,0,0,1-1.22.68A3.89,3.89,0,0,1,40.1,81a3.69,3.69,0,0,1-1.17-.2,2.44,2.44,0,0,1-1-.59,1.38,1.38,0,0,1-.39-1,.9.9,0,0,1,.28-.63,3.53,3.53,0,0,1,.66-.54,7,7,0,0,1,.62-.36,2.41,2.41,0,0,1-.53-.27,1.72,1.72,0,0,1-.48-.45,1.1,1.1,0,0,1-.19-.64,3.48,3.48,0,0,1,.38-.35c.17-.14.33-.26.5-.38a3.78,3.78,0,0,1,.38-.26,2.47,2.47,0,0,1-.88-.82,1.92,1.92,0,0,1-.34-1,2,2,0,0,1,.33-1.09,2.49,2.49,0,0,1,.88-.82,2.54,2.54,0,0,1,1.27-.31,2.06,2.06,0,0,1,.8.13l.53.2.22.07.11,0,1.57-.22c.09,0,.14.08.14.15a1,1,0,0,1-.11.31.71.71,0,0,1-.22.29l-.41,0-.55,0s-.06,0-.06,0a2,2,0,0,1,.23.45,2.05,2.05,0,0,1,.17.89,1.77,1.77,0,0,1-.32,1,2.59,2.59,0,0,1-2.6,1.1,2.21,2.21,0,0,1-.37-.09,1.39,1.39,0,0,0-.37.28.5.5,0,0,0-.17.36c0,.07.07.17.22.32a1,1,0,0,0,.66.2Zm-.67,1h-.44l-.59,0a1.25,1.25,0,0,0-.33,0,4.77,4.77,0,0,0-.56.42.75.75,0,0,0-.31.56,1.52,1.52,0,0,0,.51,1.17,2,2,0,0,0,1.44.48,2.52,2.52,0,0,0,1-.23,2.72,2.72,0,0,0,.85-.58,1.1,1.1,0,0,0,.34-.77.79.79,0,0,0-.19-.47,1.64,1.64,0,0,0-.62-.46A2.69,2.69,0,0,0,41,77.69Zm-.58-6a1,1,0,0,0-.71.25,1.65,1.65,0,0,0-.43.65,2.24,2.24,0,0,0-.15.81,2.35,2.35,0,0,0,.16.87,1.72,1.72,0,0,0,.48.69,1.15,1.15,0,0,0,.77.27,1,1,0,0,0,.68-.25,1.74,1.74,0,0,0,.42-.63,2.39,2.39,0,0,0,.14-.79,2.68,2.68,0,0,0-.15-.89,1.7,1.7,0,0,0-.45-.7A1.05,1.05,0,0,0,40.39,71.65Z"/><path class="cls-1" d="M48.55,71.22a1.87,1.87,0,0,1,1.2.32,1.74,1.74,0,0,1,.55,1,9.41,9.41,0,0,1,.14,1.76v1.62c0,.21,0,.42,0,.61a1.44,1.44,0,0,0,.07.46s.09.1.21.14a1.75,1.75,0,0,0,.41.08,2.09,2.09,0,0,0,.31,0,.46.46,0,0,1,0,.21.3.3,0,0,1,0,.21l-.8,0-.78,0-.75,0-.79,0a.25.25,0,0,1,0-.21.36.36,0,0,1,0-.21,2,2,0,0,0,.3,0,1.77,1.77,0,0,0,.4-.08c.13,0,.2-.09.21-.14a1.78,1.78,0,0,0,.07-.46c0-.19,0-.4,0-.61V74.47A6.6,6.6,0,0,0,49.2,73a1.21,1.21,0,0,0-.44-.75,1.49,1.49,0,0,0-.88-.22,1.3,1.3,0,0,0-.59.17,3.75,3.75,0,0,0-.57.37c-.15.13-.23.22-.23.27v3.67a1.78,1.78,0,0,0,.07.46s.09.1.22.14a1.67,1.67,0,0,0,.4.08,2.16,2.16,0,0,0,.31,0,.36.36,0,0,1,0,.21.25.25,0,0,1,0,.21l-.79,0-.78,0-.76,0-.79,0a.25.25,0,0,1,0-.21.46.46,0,0,1,0-.21,2,2,0,0,0,.3,0,1.86,1.86,0,0,0,.41-.08c.13,0,.2-.09.21-.14a1.47,1.47,0,0,0,.06-.46c0-.19,0-.4,0-.61V69.46c0-.1,0-.23,0-.39a.92.92,0,0,0-.06-.37q-.06-.17-.33-.21a3.24,3.24,0,0,0-.56,0s0-.06,0-.18,0-.2,0-.21a6.45,6.45,0,0,0,1.08-.21,8.85,8.85,0,0,0,1-.37s.07,0,.11.08a.37.37,0,0,1,0,.16A5.2,5.2,0,0,0,46.49,69v3.31s0,0,0,0l0,0a3.27,3.27,0,0,1,.48-.42,4.56,4.56,0,0,1,.74-.45A1.62,1.62,0,0,1,48.55,71.22Z"/><path class="cls-1" d="M53.93,71.3h1.89s.08.06.08.17a.61.61,0,0,1-.21.43H53.93v3.84c0,.8.33,1.2,1,1.2a1.33,1.33,0,0,0,.6-.14,2.38,2.38,0,0,0,.34-.19s0,0,0,.09a.3.3,0,0,1-.06.22,3.48,3.48,0,0,1-.33.32,2.16,2.16,0,0,1-.51.34,1.45,1.45,0,0,1-.66.15,2,2,0,0,1-.73-.13,1.22,1.22,0,0,1-.58-.48,1.79,1.79,0,0,1-.22-1V71.9H52s0,0,0-.05a.31.31,0,0,1,0-.08.36.36,0,0,1,.09-.14c.06-.08.16-.18.29-.33h.54v-.91l.35-.38.37-.41.18-.2a.18.18,0,0,1,.14-.06c.06,0,.08,0,.08,0Z"/><path class="cls-1" d="M63.6,77.73a2,2,0,0,1-.5-.08l-.58-.14-.12,0-.41-.1a.86.86,0,0,0-.42,0s-.08,0-.12-.13a.4.4,0,0,1-.07-.19,1.64,1.64,0,0,0,.14-.54,3.68,3.68,0,0,0,0-.53V69.46c0-.1,0-.23,0-.39a.9.9,0,0,0-.07-.37.37.37,0,0,0-.32-.21,3.45,3.45,0,0,0-.57,0s0-.06,0-.18,0-.2,0-.21a6.77,6.77,0,0,0,1.09-.21,8.85,8.85,0,0,0,1-.37.17.17,0,0,1,.12.08.37.37,0,0,1,.05.16A5.23,5.23,0,0,0,62.68,69v2.88a.69.69,0,0,0,0,.13c0,.05,0,.06.07,0l.44-.28a7.38,7.38,0,0,1,.69-.35,1.62,1.62,0,0,1,.64-.16,2.39,2.39,0,0,1,1.16.27,2.68,2.68,0,0,1,.84.72,3.06,3.06,0,0,1,.51,1,3.12,3.12,0,0,1,.17,1A3.34,3.34,0,0,1,66.75,76a3.45,3.45,0,0,1-1.29,1.28A3.58,3.58,0,0,1,63.6,77.73Zm.24-5.65a1.6,1.6,0,0,0-.63.15,1.44,1.44,0,0,0-.45.24.25.25,0,0,0-.08.17v3.55a.81.81,0,0,0,.21.55,1.34,1.34,0,0,0,.53.37,1.58,1.58,0,0,0,.63.13,1.43,1.43,0,0,0,1-.37,2.77,2.77,0,0,0,1-2.07,3,3,0,0,0-.6-2A1.91,1.91,0,0,0,63.84,72.08Z"/><path class="cls-1" d="M69.28,71.41q.42,0,.84,0l.63,0a.78.78,0,0,1,0,.24c0,.12,0,.18-.07.18l-.23,0a1.28,1.28,0,0,0-.34.07A.18.18,0,0,0,70,72a.13.13,0,0,0,0,.06l1.56,4c.16-.43.3-.82.43-1.15l.42-1.09c.15-.39.3-.75.44-1.09a.92.92,0,0,0,.07-.26c0-.09,0-.16,0-.21a.4.4,0,0,0-.23-.35,1.35,1.35,0,0,0-.61-.13s-.06-.06-.06-.18a.35.35,0,0,1,.06-.24l.52,0c.23,0,.5,0,.8,0s.51,0,.71,0l.52,0a.4.4,0,0,1,0,.24c0,.12,0,.18-.07.18l-.25,0a1.93,1.93,0,0,0-.39.15.63.63,0,0,0-.29.31c-.22.52-.41,1-.59,1.41s-.34.83-.51,1.22-.33.81-.51,1.23-.37.9-.58,1.42-.35.9-.52,1.35a6.78,6.78,0,0,1-.64,1.26,2.08,2.08,0,0,1-.58.6A1.25,1.25,0,0,1,69,81a.84.84,0,0,1-.42-.12.66.66,0,0,1-.15-.76.5.5,0,0,1,.11-.18,5,5,0,0,0,.6,0,1.15,1.15,0,0,0,.51-.22,2.74,2.74,0,0,0,.55-.57,2.88,2.88,0,0,0,.27-.49c.1-.21.19-.42.28-.62a3.8,3.8,0,0,0,.14-.37l-.76-2c-.24-.6-.49-1.2-.73-1.78s-.51-1.19-.8-1.81a.47.47,0,0,0-.38-.26l-.4,0h0s0-.06,0-.2a.66.66,0,0,1,0-.22l.61,0C68.69,71.4,69,71.41,69.28,71.41Z"/><path class="cls-1" d="M82.85,67.89a5.3,5.3,0,0,1,.77,0c.21,0,.42.08.63.14l.81.21c.06.38.1.77.14,1.18s.06.71.07.91,0,.08-.11.11a.93.93,0,0,1-.19,0,.24.24,0,0,1-.17-.06,2.36,2.36,0,0,0-.18-.63,3.06,3.06,0,0,0-.41-.69,2.09,2.09,0,0,0-.63-.55,1.66,1.66,0,0,0-.83-.22,1.58,1.58,0,0,0-1,.26,1.43,1.43,0,0,0-.49.63,2,2,0,0,0-.15.73,1.51,1.51,0,0,0,.31,1,2.9,2.9,0,0,0,.78.68l1,.62.79.49a8,8,0,0,1,.84.6,2.8,2.8,0,0,1,.66.76,1.85,1.85,0,0,1,.26,1,2.3,2.3,0,0,1-.45,1.4,3,3,0,0,1-1.13.94,3.31,3.31,0,0,1-1.48.34,6.07,6.07,0,0,1-1.42-.17c-.45-.11-.86-.2-1.22-.27-.06-.29-.11-.6-.16-.93s-.08-.61-.1-.86,0-.41,0-.47a1.09,1.09,0,0,1,.17-.13.54.54,0,0,1,.21,0,.15.15,0,0,1,.16.14,3.39,3.39,0,0,0,.19.57,3,3,0,0,0,.42.76,2.16,2.16,0,0,0,.72.65,2.06,2.06,0,0,0,1.1.26A1.76,1.76,0,0,0,84,76.81a1.67,1.67,0,0,0,.52-1.32,1.46,1.46,0,0,0-.28-1,2.48,2.48,0,0,0-.71-.6l-1-.54c-.37-.22-.75-.46-1.14-.73a3.91,3.91,0,0,1-1-.94,2,2,0,0,1-.4-1.27,2.26,2.26,0,0,1,.41-1.36,2.74,2.74,0,0,1,1.07-.89A3.17,3.17,0,0,1,82.85,67.89Z"/><path class="cls-1" d="M87.08,77a.72.72,0,0,1,.25-.56.77.77,0,0,1,.57-.23.73.73,0,0,1,.56.23.76.76,0,0,1,.22.56.84.84,0,0,1-.22.58.74.74,0,0,1-.56.24.78.78,0,0,1-.57-.24A.79.79,0,0,1,87.08,77Z"/><path class="cls-1" d="M92.38,68h1.11c.15.23.39.55.72,1s.72.9,1.16,1.43L96.73,72c.47.57.92,1.13,1.36,1.69s.82,1,1.14,1.5V69.66c0-.26,0-.47,0-.62a.8.8,0,0,0-.14-.4.46.46,0,0,0-.27-.14,3.23,3.23,0,0,0-.47-.11l-.37,0a.33.33,0,0,1,0-.21c0-.1,0-.17,0-.21l.82,0c.25,0,.54,0,.86,0h.56l.45,0,.57,0a1.27,1.27,0,0,1,0,.18.41.41,0,0,1,0,.24l-.36,0a4,4,0,0,0-.5.1.57.57,0,0,0-.3.16.77.77,0,0,0-.12.37c0,.14,0,.35,0,.63v7.29c0,.2,0,.42,0,.68a.11.11,0,0,1-.09.08h-.11a.47.47,0,0,1-.2-.07,1,1,0,0,1-.31-.27L92.85,69.3V76c0,.26,0,.46,0,.61A1.06,1.06,0,0,0,93,77a.53.53,0,0,0,.26.15l.47.11a2,2,0,0,0,.36,0,.33.33,0,0,1,.06.21.58.58,0,0,1,0,.21l-.81,0-.85,0H91.9l-.45,0-.56,0a.56.56,0,0,1,0-.18.42.42,0,0,1,0-.24l.34,0a4,4,0,0,0,.5-.11c.17,0,.26-.1.29-.16a.78.78,0,0,0,.13-.36,5.18,5.18,0,0,0,0-.62V69.61a5.28,5.28,0,0,0,0-.63.78.78,0,0,0-.13-.37c0-.06-.12-.11-.29-.16a2.77,2.77,0,0,0-.5-.1l-.34,0a.42.42,0,0,1,0-.24.56.56,0,0,1,0-.18l.82,0C91.92,68,92.14,68,92.38,68Z"/><path class="cls-1" d="M102.33,77a.75.75,0,0,1,.25-.56.81.81,0,0,1,.58-.23.71.71,0,0,1,.55.23.77.77,0,0,1,.23.56.85.85,0,0,1-.23.58.72.72,0,0,1-.55.24.82.82,0,0,1-.58-.24A.83.83,0,0,1,102.33,77Z"/><path class="cls-1" d="M116.86,75.07v-.18c0-.19,0-.37,0-.52a1.75,1.75,0,0,0,0-.38q0-.09-.24-.15a3,3,0,0,0-.45-.07l-.32,0a.36.36,0,0,1-.05-.21.25.25,0,0,1,.05-.21l.87,0q.42,0,.84,0c.29,0,.56,0,.82,0l.83,0a.25.25,0,0,1,0,.21.36.36,0,0,1,0,.21l-.32,0a2.63,2.63,0,0,0-.42.07c-.13,0-.2.09-.22.15a1.78,1.78,0,0,0-.07.46c0,.19,0,.4,0,.62v1a.69.69,0,0,0,.08.36.44.44,0,0,1,.07.24.13.13,0,0,1,0,.1A1.29,1.29,0,0,1,118,77c-.21.11-.45.23-.73.35a4.92,4.92,0,0,1-1,.3,8.77,8.77,0,0,1-1.6.12,5.1,5.1,0,0,1-2-.38,4.94,4.94,0,0,1-1.55-1,4.82,4.82,0,0,1-1-1.53,4.75,4.75,0,0,1-.35-1.84A5.23,5.23,0,0,1,110.1,71a5.33,5.33,0,0,1,1-1.61,4.74,4.74,0,0,1,1.57-1.1,4.93,4.93,0,0,1,2-.4c.48,0,1,0,1.51.06a11.12,11.12,0,0,1,1.59.24c.07.41.13.76.17,1s.08.52.11.75a2.76,2.76,0,0,1,0,.4s0,.08-.09.12a.43.43,0,0,1-.22.06.35.35,0,0,1-.18,0c0-.11-.07-.28-.14-.51a2.43,2.43,0,0,0-.41-.72,2.28,2.28,0,0,0-.84-.64,3.55,3.55,0,0,0-1.47-.26,3,3,0,0,0-1.47.37,3.56,3.56,0,0,0-1.13,1,4.33,4.33,0,0,0-.72,1.38,4.7,4.7,0,0,0-.25,1.52,6.36,6.36,0,0,0,.23,1.68,4.88,4.88,0,0,0,.71,1.49,3.53,3.53,0,0,0,1.18,1.06,3.33,3.33,0,0,0,1.67.4,2.86,2.86,0,0,0,1-.16,6,6,0,0,0,.78-.32.13.13,0,0,0,.08-.08s0-.08,0-.13Z"/><path class="cls-1" d="M123.28,71.2a3.16,3.16,0,0,1,1.67.42A2.82,2.82,0,0,1,126,72.76a3.36,3.36,0,0,1,.39,1.63,3.53,3.53,0,0,1-.41,1.7,3.06,3.06,0,0,1-1.11,1.2,2.88,2.88,0,0,1-1.59.44,3.24,3.24,0,0,1-1.67-.42,2.9,2.9,0,0,1-1.09-1.16,3.71,3.71,0,0,1,0-3.33,3.13,3.13,0,0,1,1.12-1.19A2.93,2.93,0,0,1,123.28,71.2Zm-.16.49a1.38,1.38,0,0,0-1,.37,2.12,2.12,0,0,0-.54,1,4.29,4.29,0,0,0-.16,1.2,4.34,4.34,0,0,0,.23,1.41,2.85,2.85,0,0,0,.69,1.17,1.48,1.48,0,0,0,1.11.46,1.38,1.38,0,0,0,1-.36,2.16,2.16,0,0,0,.53-1,4.4,4.4,0,0,0,.17-1.2,4.32,4.32,0,0,0-.24-1.42,3.12,3.12,0,0,0-.69-1.16A1.49,1.49,0,0,0,123.12,71.69Z"/><path class="cls-1" d="M128.63,74a3.22,3.22,0,0,0,.32,1.56,2.23,2.23,0,0,0,.88.94,2.48,2.48,0,0,0,1.2.3,1.73,1.73,0,0,0,.73-.14,2,2,0,0,0,.56-.33,2.34,2.34,0,0,0,.31-.29l.07,0a.2.2,0,0,1,.05.15.51.51,0,0,1-.09.26,3.68,3.68,0,0,1-.42.51,3,3,0,0,1-.71.51,2.18,2.18,0,0,1-1,.23,2.82,2.82,0,0,1-1.51-.41,2.87,2.87,0,0,1-1-1.09,3.16,3.16,0,0,1-.37-1.54,3.63,3.63,0,0,1,.26-1.37,3.86,3.86,0,0,1,.69-1.11,3.31,3.31,0,0,1,.94-.75,2.09,2.09,0,0,1,1-.26,2.28,2.28,0,0,1,1.08.22,2,2,0,0,1,.68.55,2.08,2.08,0,0,1,.34.66,1.89,1.89,0,0,1,.1.56,1.28,1.28,0,0,1-.08.49.3.3,0,0,1-.28.2l-.53,0-.91,0-1,0L129,74Zm.08-.54h2.38a.35.35,0,0,0,.23-.07.38.38,0,0,0,.12-.27,1.33,1.33,0,0,0-.11-.51A1.74,1.74,0,0,0,131,72a1,1,0,0,0-.71-.27,1.16,1.16,0,0,0-.77.26,2.23,2.23,0,0,0-.47.6,3.24,3.24,0,0,0-.24.6A1.12,1.12,0,0,0,128.71,73.46Z"/><path class="cls-1" d="M138,71.22a1.87,1.87,0,0,1,1.2.32,1.74,1.74,0,0,1,.55,1,9.41,9.41,0,0,1,.14,1.76v1.62c0,.21,0,.42,0,.61A1.44,1.44,0,0,0,140,77s.09.1.21.14a1.77,1.77,0,0,0,.4.08,2,2,0,0,0,.3,0,.36.36,0,0,1,.05.21.25.25,0,0,1-.05.21l-.79,0-.77,0-.76,0-.8,0a.3.3,0,0,1-.05-.21.46.46,0,0,1,.05-.21,2.09,2.09,0,0,0,.31,0,1.75,1.75,0,0,0,.41-.08c.13,0,.2-.09.21-.14a1.78,1.78,0,0,0,.07-.46c0-.19,0-.4,0-.61V74.47a6.6,6.6,0,0,0-.12-1.43,1.21,1.21,0,0,0-.44-.75,1.49,1.49,0,0,0-.88-.22,1.3,1.3,0,0,0-.59.17,3.2,3.2,0,0,0-.56.37q-.24.19-.24.27v3.67A1.78,1.78,0,0,0,136,77s.09.1.22.14a1.69,1.69,0,0,0,.39.08,2,2,0,0,0,.3,0,.44.44,0,0,1,.06.21.29.29,0,0,1-.06.21l-.78,0-.77,0-.77,0-.79,0a.29.29,0,0,1-.06-.21.44.44,0,0,1,.06-.21,2,2,0,0,0,.3,0,1.84,1.84,0,0,0,.42-.08c.13,0,.2-.09.21-.14a1.47,1.47,0,0,0,.06-.46c0-.19,0-.4,0-.61V73.27c0-.1,0-.24,0-.42a1.07,1.07,0,0,0-.06-.41.31.31,0,0,0-.26-.18,1.52,1.52,0,0,0-.42-.06h-.27a.76.76,0,0,1,0-.18.31.31,0,0,1,0-.21,8.09,8.09,0,0,0,1.11-.23,4.55,4.55,0,0,0,1-.39s.07,0,.11.1a.3.3,0,0,1,.05.14s0,.11,0,.24,0,.24-.05.36,0,.2,0,.24,0,.06,0,.06l0,0a3.27,3.27,0,0,1,.48-.42,4.56,4.56,0,0,1,.74-.45A1.62,1.62,0,0,1,138,71.22Z"/><path class="cls-1" d="M143.5,75.94c0,.21,0,.42,0,.61a1.47,1.47,0,0,0,.06.46s.1.1.22.14a1.77,1.77,0,0,0,.4.08,2.16,2.16,0,0,0,.31,0,.36.36,0,0,1,.05.21.25.25,0,0,1-.05.21l-.79,0-.78,0-.76,0-.79,0a.3.3,0,0,1,0-.21.64.64,0,0,1,0-.21,1.91,1.91,0,0,0,.3,0,1.86,1.86,0,0,0,.41-.08c.13,0,.2-.09.21-.14a1.78,1.78,0,0,0,.07-.46V69.06a1.09,1.09,0,0,0-.07-.36.37.37,0,0,0-.32-.21,3.43,3.43,0,0,0-.56,0s0-.06,0-.18,0-.2,0-.21a6.45,6.45,0,0,0,1.08-.21,8.85,8.85,0,0,0,1-.37.14.14,0,0,1,.11.08.27.27,0,0,1,0,.16A5.2,5.2,0,0,0,143.5,69V74.2a2.1,2.1,0,0,0,.51-.33l.7-.57.95-.8q.39-.31.39-.42c0-.08-.05-.13-.15-.16l-.3-.07-.24,0a.38.38,0,0,1-.06-.24c0-.11,0-.17.07-.18l.69,0c.25,0,.49,0,.72,0a9.43,9.43,0,0,0,1.29-.07.39.39,0,0,1,0,.22.56.56,0,0,1,0,.2,2.64,2.64,0,0,0-.52.09,1.9,1.9,0,0,0-.61.25l-.31.23-.61.45-.73.57-.71.57c.37.39.73.78,1.09,1.19l1,1.06c.28.31.47.51.58.61a1.62,1.62,0,0,0,.67.33,2.42,2.42,0,0,0,.67.07.28.28,0,0,1,0,.16.34.34,0,0,1,0,.19,1.78,1.78,0,0,1-.36.06,5.49,5.49,0,0,1-.58,0,2.73,2.73,0,0,1-1.14-.23,2.34,2.34,0,0,1-.66-.42l-.73-.78-.69-.74-.68-.74a.56.56,0,0,0-.22-.13Z"/><path class="cls-1" d="M152.16,71.24a1.32,1.32,0,0,1,.79.27,2,2,0,0,1,.59.72,2.25,2.25,0,0,1,.22,1v3a1,1,0,0,0,.11.49.34.34,0,0,0,.34.2.54.54,0,0,0,.33-.09l.15-.1a.05.05,0,0,1,.05,0,.25.25,0,0,1,0,.08.51.51,0,0,1-.07.28l-.3.21a2.86,2.86,0,0,1-.42.24.89.89,0,0,1-.38.11.72.72,0,0,1-.56-.32,1.68,1.68,0,0,1-.32-.64l-.28.22a4.33,4.33,0,0,1-.5.34,4.41,4.41,0,0,1-.56.3,1.12,1.12,0,0,1-.47.13,1.66,1.66,0,0,1-1.22-.49,1.59,1.59,0,0,1-.49-1.19,1.24,1.24,0,0,1,.24-.77,1.17,1.17,0,0,1,.49-.41l.94-.33,1-.33.66-.26a.27.27,0,0,0,.15-.11.75.75,0,0,0,0-.26v-.39a1.39,1.39,0,0,0-.16-.65A1.48,1.48,0,0,0,152,72a1,1,0,0,0-.65-.22.65.65,0,0,0-.55.24,1.54,1.54,0,0,0-.25.67c-.09.47-.32.71-.69.71a.42.42,0,0,1-.37-.2.72.72,0,0,1-.13-.42,1,1,0,0,1,0-.17.57.57,0,0,1,.08-.19,5.43,5.43,0,0,1,.64-.49,5,5,0,0,1,.95-.5A3.12,3.12,0,0,1,152.16,71.24ZM151.38,77a1.48,1.48,0,0,0,.55-.12,2.42,2.42,0,0,0,.51-.26c.14-.09.21-.17.21-.22v-2l-.72.23-.64.21a1.61,1.61,0,0,0-.64.43,1.05,1.05,0,0,0,0,1.42A.92.92,0,0,0,151.38,77Z"/><path class="cls-2" d="M8.78,83.58a.31.31,0,0,1,.24.09.4.4,0,0,1,.09.27.41.41,0,0,1-.09.28.31.31,0,0,1-.24.1.3.3,0,0,1-.24-.1.41.41,0,0,1-.09-.28.4.4,0,0,1,.09-.27A.3.3,0,0,1,8.78,83.58ZM9,85.25v4.54H8.54V85.25Z"/><path class="cls-2" d="M12.54,85.17a1.59,1.59,0,0,1,1.18.4,1.68,1.68,0,0,1,.41,1.26v3h-.47V86.86a1.36,1.36,0,0,0-.3-1,1.19,1.19,0,0,0-.88-.3,1.38,1.38,0,0,0-1.11.43,1.94,1.94,0,0,0-.38,1.3v2.47h-.48V85.25h.39L11,86h0a1.55,1.55,0,0,1,.85-.76A2.17,2.17,0,0,1,12.54,85.17Z"/><path class="cls-2" d="M19.07,89.46a2,2,0,0,0,.36,0l.3-.07v.39a1.79,1.79,0,0,1-.32.09,2.6,2.6,0,0,1-.4,0,1.38,1.38,0,0,1-.64-.14.93.93,0,0,1-.41-.44,1.84,1.84,0,0,1-.14-.76V85.65h-.66v-.28l.66-.15.18-1h.31v1.08h1.4v.4h-1.4v2.86a1.11,1.11,0,0,0,.19.71A.67.67,0,0,0,19.07,89.46Z"/><path class="cls-2" d="M21.17,85.39c0,.11,0,.22,0,.33s0,.22,0,.33h0a1.62,1.62,0,0,1,.33-.46,1.4,1.4,0,0,1,.52-.3,1.83,1.83,0,0,1,.68-.11,2.09,2.09,0,0,1,.88.17,1.18,1.18,0,0,1,.54.54,2.1,2.1,0,0,1,.18.94v3h-.48V86.86a1.36,1.36,0,0,0-.29-1,1.19,1.19,0,0,0-.88-.3,1.62,1.62,0,0,0-.83.19,1.25,1.25,0,0,0-.5.58,2.47,2.47,0,0,0-.16,1v2.47h-.48V83.31h.48Z"/><path class="cls-2" d="M27.47,85.17a1.69,1.69,0,0,1,1,.27,1.71,1.71,0,0,1,.59.73,2.86,2.86,0,0,1,.2,1.09v.32H26A2,2,0,0,0,26.42,89a1.51,1.51,0,0,0,1.2.48,4,4,0,0,0,.74-.07,4.08,4.08,0,0,0,.69-.24v.44a3.08,3.08,0,0,1-.67.22,3.64,3.64,0,0,1-.78.07,2.14,2.14,0,0,1-1.14-.28,1.78,1.78,0,0,1-.72-.81,2.85,2.85,0,0,1-.24-1.22,3,3,0,0,1,.23-1.23,1.89,1.89,0,0,1,.67-.85A1.78,1.78,0,0,1,27.47,85.17Zm0,.41a1.32,1.32,0,0,0-1,.41A1.9,1.9,0,0,0,26,87.18h2.72a2.39,2.39,0,0,0-.13-.84,1.24,1.24,0,0,0-.42-.56A1.19,1.19,0,0,0,27.47,85.58Z"/><path class="cls-2" d="M34.43,89.79h-.49V84.15H32V83.7h4.41v.45h-2Z"/><path class="cls-2" d="M38.62,85.18a1.72,1.72,0,0,1,.33,0l.29,0-.07.45a2.61,2.61,0,0,0-.27-.06l-.3,0a1.28,1.28,0,0,0-.56.12,1.24,1.24,0,0,0-.42.34,1.47,1.47,0,0,0-.27.53,2.09,2.09,0,0,0-.1.69v2.49h-.48V85.25h.4l.06.86h0a2,2,0,0,1,.3-.48A1.43,1.43,0,0,1,38,85.3,1.46,1.46,0,0,1,38.62,85.18Z"/><path class="cls-2" d="M41.55,85.18a1.56,1.56,0,0,1,1.15.37,1.63,1.63,0,0,1,.37,1.19v3.05H42.7L42.62,89h0a2,2,0,0,1-.37.45,1.53,1.53,0,0,1-.5.29,2,2,0,0,1-.72.11,1.72,1.72,0,0,1-.74-.15,1.14,1.14,0,0,1-.49-.43,1.36,1.36,0,0,1-.17-.69,1.13,1.13,0,0,1,.56-1,3.21,3.21,0,0,1,1.61-.41l.82,0v-.33a1.4,1.4,0,0,0-.26-1,1.09,1.09,0,0,0-.8-.27,2.46,2.46,0,0,0-.67.09,3.39,3.39,0,0,0-.64.25l-.16-.39a4.42,4.42,0,0,1,.7-.26A3,3,0,0,1,41.55,85.18Zm.27,2.35a2.87,2.87,0,0,0-1.29.3.85.85,0,0,0-.42.78.74.74,0,0,0,.26.63,1.07,1.07,0,0,0,.72.22,1.47,1.47,0,0,0,1.11-.4,1.53,1.53,0,0,0,.39-1.12v-.45Z"/><path class="cls-2" d="M46.15,89.87a1.74,1.74,0,0,1-1.41-.58,2.65,2.65,0,0,1-.49-1.72,2.75,2.75,0,0,1,.52-1.79,1.75,1.75,0,0,1,1.42-.61,1.86,1.86,0,0,1,.66.11,1.47,1.47,0,0,1,.48.31,1.35,1.35,0,0,1,.31.45h0c0-.14,0-.29,0-.45s0-.31,0-.44V83.31h.49v6.48h-.39l-.07-.8h0a1.67,1.67,0,0,1-.31.44,1.31,1.31,0,0,1-.49.32A1.78,1.78,0,0,1,46.15,89.87Zm.06-.42A1.29,1.29,0,0,0,47.33,89a2.51,2.51,0,0,0,.32-1.38v-.08a2.74,2.74,0,0,0-.32-1.44,1.22,1.22,0,0,0-1.09-.49,1.29,1.29,0,0,0-1.11.51,2.51,2.51,0,0,0-.37,1.48,2.39,2.39,0,0,0,.35,1.4A1.31,1.31,0,0,0,46.21,89.45Z"/><path class="cls-2" d="M49.86,83.58a.33.33,0,0,1,.25.09.46.46,0,0,1,.08.27.47.47,0,0,1-.08.28.34.34,0,0,1-.25.1.33.33,0,0,1-.24-.1.41.41,0,0,1-.08-.28.4.4,0,0,1,.08-.27A.32.32,0,0,1,49.86,83.58Zm.24,1.67v4.54h-.48V85.25Z"/><path class="cls-2" d="M52.88,89.46a2,2,0,0,0,.35,0,1.67,1.67,0,0,0,.3-.07v.39a1.58,1.58,0,0,1-.32.09,2.6,2.6,0,0,1-.4,0,1.38,1.38,0,0,1-.64-.14.93.93,0,0,1-.41-.44,1.84,1.84,0,0,1-.14-.76V85.65H51v-.28l.66-.15.18-1h.31v1.08h1.4v.4h-1.4v2.86a1.11,1.11,0,0,0,.19.71A.67.67,0,0,0,52.88,89.46Z"/><path class="cls-2" d="M54.73,83.58a.33.33,0,0,1,.25.09.4.4,0,0,1,.08.27.41.41,0,0,1-.08.28.34.34,0,0,1-.25.1.33.33,0,0,1-.24-.1.47.47,0,0,1-.08-.28.46.46,0,0,1,.08-.27A.32.32,0,0,1,54.73,83.58ZM55,85.25v4.54h-.48V85.25Z"/><path class="cls-2" d="M60.26,87.52a3.23,3.23,0,0,1-.13,1,2.18,2.18,0,0,1-.39.74,1.72,1.72,0,0,1-.65.48,2.18,2.18,0,0,1-.87.17,1.86,1.86,0,0,1-.84-.17,1.75,1.75,0,0,1-.64-.47,2.24,2.24,0,0,1-.4-.75,3.23,3.23,0,0,1-.13-1,3,3,0,0,1,.24-1.26,1.81,1.81,0,0,1,.71-.81,2,2,0,0,1,1.1-.28,2,2,0,0,1,1.09.29,1.83,1.83,0,0,1,.68.82A3.19,3.19,0,0,1,60.26,87.52Zm-3.55,0a2.88,2.88,0,0,0,.16,1,1.46,1.46,0,0,0,.5.68,1.52,1.52,0,0,0,.85.23,1.45,1.45,0,0,0,.87-.24,1.42,1.42,0,0,0,.51-.68,3.1,3.1,0,0,0,.16-1,2.86,2.86,0,0,0-.16-1,1.29,1.29,0,0,0-1.35-.92,1.36,1.36,0,0,0-1.16.51A2.35,2.35,0,0,0,56.71,87.52Z"/><path class="cls-2" d="M63.52,85.17a1.63,1.63,0,0,1,1.19.4,1.72,1.72,0,0,1,.41,1.26v3h-.48V86.86a1.36,1.36,0,0,0-.3-1,1.19,1.19,0,0,0-.88-.3,1.38,1.38,0,0,0-1.11.43,1.94,1.94,0,0,0-.38,1.3v2.47H61.5V85.25h.38L62,86h0a1.84,1.84,0,0,1,.34-.45,1.67,1.67,0,0,1,.52-.31A2.06,2.06,0,0,1,63.52,85.17Z"/><path class="cls-2" d="M72.57,87.52a3.59,3.59,0,0,1-.13,1,2,2,0,0,1-.4.74,1.62,1.62,0,0,1-.64.48,2.19,2.19,0,0,1-.88.17,1.84,1.84,0,0,1-.83-.17,1.75,1.75,0,0,1-.64-.47,2.08,2.08,0,0,1-.4-.75,3.22,3.22,0,0,1-.14-1,2.83,2.83,0,0,1,.25-1.26,1.79,1.79,0,0,1,.7-.81,2.08,2.08,0,0,1,1.11-.28,2,2,0,0,1,1.09.29,1.83,1.83,0,0,1,.68.82A3.19,3.19,0,0,1,72.57,87.52Zm-3.55,0a2.88,2.88,0,0,0,.16,1,1.4,1.4,0,0,0,.5.68,1.52,1.52,0,0,0,.85.23,1.49,1.49,0,0,0,.87-.24,1.34,1.34,0,0,0,.5-.68,2.85,2.85,0,0,0,.17-1,3.1,3.1,0,0,0-.16-1,1.29,1.29,0,0,0-1.35-.92,1.36,1.36,0,0,0-1.16.51A2.28,2.28,0,0,0,69,87.52Z"/><path class="cls-2" d="M75.57,85.65H74.49v4.14H74V85.65h-.83v-.27l.83-.13v-.46a2.06,2.06,0,0,1,.15-.85,1,1,0,0,1,.45-.5,1.44,1.44,0,0,1,.75-.17,2,2,0,0,1,.44,0,1.9,1.9,0,0,1,.36.09l-.12.4a3,3,0,0,0-.32-.09,2.19,2.19,0,0,0-.36,0,.78.78,0,0,0-.66.26,1.35,1.35,0,0,0-.2.85v.46h1.08Z"/><path class="cls-2" d="M82.12,88.21a1.54,1.54,0,0,1-.27.92,1.64,1.64,0,0,1-.75.55,2.78,2.78,0,0,1-1.08.19,4.55,4.55,0,0,1-.67,0,4.21,4.21,0,0,1-.55-.09,3.88,3.88,0,0,1-.44-.13v-.5a5.58,5.58,0,0,0,.75.23,4.52,4.52,0,0,0,.94.1,2.31,2.31,0,0,0,.82-.14,1.15,1.15,0,0,0,.55-.4,1,1,0,0,0,.2-.66,1,1,0,0,0-.16-.6,1.46,1.46,0,0,0-.51-.41,8.46,8.46,0,0,0-.88-.35,5.8,5.8,0,0,1-.69-.28,2.46,2.46,0,0,1-.52-.34,1.23,1.23,0,0,1-.32-.46,1.75,1.75,0,0,1-.11-.64,1.3,1.3,0,0,1,.26-.84,1.58,1.58,0,0,1,.69-.52,2.57,2.57,0,0,1,1-.18,4.44,4.44,0,0,1,.84.08,3.21,3.21,0,0,1,.76.24l-.16.43a4,4,0,0,0-.72-.23,3.72,3.72,0,0,0-.74-.08,2.09,2.09,0,0,0-.74.12,1.19,1.19,0,0,0-.5.37,1,1,0,0,0-.18.6,1.09,1.09,0,0,0,.17.63,1.36,1.36,0,0,0,.5.4,8.51,8.51,0,0,0,.79.32,5.78,5.78,0,0,1,.92.39,1.62,1.62,0,0,1,.6.52A1.38,1.38,0,0,1,82.12,88.21Z"/><path class="cls-2" d="M84.9,85.18a1.53,1.53,0,0,1,1.14.37,1.63,1.63,0,0,1,.38,1.19v3.05h-.37L86,89h0a2.34,2.34,0,0,1-.37.45,1.53,1.53,0,0,1-.5.29,2,2,0,0,1-.72.11,1.72,1.72,0,0,1-.74-.15,1.14,1.14,0,0,1-.49-.43A1.36,1.36,0,0,1,83,88.6a1.13,1.13,0,0,1,.56-1,3.21,3.21,0,0,1,1.61-.41l.82,0v-.33a1.35,1.35,0,0,0-.27-1,1,1,0,0,0-.79-.27,2.46,2.46,0,0,0-.67.09,3.39,3.39,0,0,0-.64.25l-.16-.39a4.42,4.42,0,0,1,.7-.26A3,3,0,0,1,84.9,85.18Zm.27,2.35a2.87,2.87,0,0,0-1.29.3.85.85,0,0,0-.42.78.74.74,0,0,0,.26.63,1.07,1.07,0,0,0,.72.22,1.47,1.47,0,0,0,1.11-.4,1.53,1.53,0,0,0,.39-1.12v-.45Z"/><path class="cls-2" d="M87.12,85.25h.52l1.07,2.82.17.46.14.4c0,.12.07.23.1.34h0c0-.13.09-.3.16-.51s.15-.43.24-.68l1-2.83h.52l-2,5.34a3.59,3.59,0,0,1-.34.68,1.41,1.41,0,0,1-.45.43,1.17,1.17,0,0,1-.61.15l-.29,0-.26-.06v-.41l.23,0,.26,0a.82.82,0,0,0,.42-.1.8.8,0,0,0,.31-.3,2.24,2.24,0,0,0,.25-.49l.3-.77Z"/><path class="cls-2" d="M93.46,85.18a1.56,1.56,0,0,1,1.15.37A1.63,1.63,0,0,1,95,86.74v3.05h-.37L94.53,89h0a2,2,0,0,1-.37.45,1.53,1.53,0,0,1-.5.29,2,2,0,0,1-.72.11,1.72,1.72,0,0,1-.74-.15,1.14,1.14,0,0,1-.49-.43,1.36,1.36,0,0,1-.17-.69,1.13,1.13,0,0,1,.56-1,3.21,3.21,0,0,1,1.61-.41l.82,0v-.33a1.4,1.4,0,0,0-.26-1,1.09,1.09,0,0,0-.8-.27,2.46,2.46,0,0,0-.67.09,3.39,3.39,0,0,0-.64.25L92,85.54a4.42,4.42,0,0,1,.7-.26A3,3,0,0,1,93.46,85.18Zm.27,2.35a2.87,2.87,0,0,0-1.29.3.85.85,0,0,0-.42.78.74.74,0,0,0,.26.63,1.07,1.07,0,0,0,.72.22,1.47,1.47,0,0,0,1.11-.4,1.53,1.53,0,0,0,.39-1.12v-.45Z"/><path class="cls-2" d="M98.09,85.17a1.72,1.72,0,0,1,.89.21,1.67,1.67,0,0,1,.56.56h0l.07-.69H100v4.68a2.41,2.41,0,0,1-.2,1,1.44,1.44,0,0,1-.64.65,2.39,2.39,0,0,1-1.12.23,4.94,4.94,0,0,1-.9-.08,4.23,4.23,0,0,1-.71-.23v-.47a3.36,3.36,0,0,0,.74.27,4.16,4.16,0,0,0,.9.09A1.4,1.4,0,0,0,99.2,91,1.49,1.49,0,0,0,99.55,90v-.27c0-.12,0-.24,0-.36s0-.24,0-.34h0a1.55,1.55,0,0,1-.58.66,1.84,1.84,0,0,1-.94.22,1.68,1.68,0,0,1-1.37-.6,2.58,2.58,0,0,1-.5-1.71,2.8,2.8,0,0,1,.5-1.75A1.71,1.71,0,0,1,98.09,85.17Zm0,.42a1.35,1.35,0,0,0-.82.23,1.42,1.42,0,0,0-.49.67,3.09,3.09,0,0,0-.16,1.07A2.38,2.38,0,0,0,97,89a1.26,1.26,0,0,0,1,.48,1.69,1.69,0,0,0,.72-.13,1.14,1.14,0,0,0,.44-.37,1.63,1.63,0,0,0,.24-.57,3.14,3.14,0,0,0,.07-.7v-.3a3.14,3.14,0,0,0-.13-1A1.17,1.17,0,0,0,99,85.8,1.46,1.46,0,0,0,98.14,85.59Z"/><path class="cls-2" d="M100.78,85.25h.52l1.07,2.82c.07.17.12.32.17.46s.1.28.14.4.07.23.1.34h0c0-.13.09-.3.16-.51s.15-.43.24-.68l1.06-2.83h.52l-2.05,5.34a3.59,3.59,0,0,1-.34.68,1.38,1.38,0,0,1-.44.43,1.21,1.21,0,0,1-.62.15l-.29,0-.25-.06v-.41l.22,0,.26,0a.82.82,0,0,0,.42-.1A.83.83,0,0,0,102,91a2.24,2.24,0,0,0,.24-.49l.3-.77Z"/><path class="cls-2" d="M105.76,83.58a.32.32,0,0,1,.25.09.4.4,0,0,1,.09.27.41.41,0,0,1-.09.28.32.32,0,0,1-.25.1.29.29,0,0,1-.23-.1.41.41,0,0,1-.09-.28.4.4,0,0,1,.09-.27A.29.29,0,0,1,105.76,83.58Zm.24,1.67v4.54h-.47V85.25Z"/><path class="cls-2" d="M114.33,87.64a2.42,2.42,0,0,1-.28,1.2,1.85,1.85,0,0,1-.78.76,2.65,2.65,0,0,1-1.25.27,2,2,0,0,1-2.26-2.25V83.7h.49v3.92a1.83,1.83,0,0,0,.46,1.35,1.78,1.78,0,0,0,1.33.47,2.06,2.06,0,0,0,1-.21,1.38,1.38,0,0,0,.61-.61,2,2,0,0,0,.21-1v-4h.49Z"/><path class="cls-2" d="M119.85,83.7a3,3,0,0,1,1.67.36,1.26,1.26,0,0,1,.53,1.13,1.45,1.45,0,0,1-.13.63,1.19,1.19,0,0,1-.4.49,1.69,1.69,0,0,1-.64.26v0a2.15,2.15,0,0,1,.74.26,1.18,1.18,0,0,1,.46.48,1.61,1.61,0,0,1,.15.73,1.66,1.66,0,0,1-.27,1,1.54,1.54,0,0,1-.75.57,3.16,3.16,0,0,1-1.12.19h-1.91V83.7Zm.12,2.69a2,2,0,0,0,1.21-.29,1,1,0,0,0,.37-.86.92.92,0,0,0-.4-.85,2.51,2.51,0,0,0-1.29-.25h-1.19v2.25Zm-1.3.42v2.55h1.39A1.87,1.87,0,0,0,121.3,89a1.2,1.2,0,0,0,.41-1,1.15,1.15,0,0,0-.19-.69,1.07,1.07,0,0,0-.57-.4,3.25,3.25,0,0,0-1-.13Z"/><path class="cls-2" d="M125.05,85.18a1.55,1.55,0,0,1,1.14.37,1.63,1.63,0,0,1,.38,1.19v3.05h-.37l-.08-.77h0a2.34,2.34,0,0,1-.37.45,1.64,1.64,0,0,1-.5.29,2,2,0,0,1-.72.11,1.68,1.68,0,0,1-.74-.15,1,1,0,0,1-.49-.43,1.36,1.36,0,0,1-.17-.69,1.12,1.12,0,0,1,.55-1,3.24,3.24,0,0,1,1.61-.41l.83,0v-.33a1.35,1.35,0,0,0-.27-1,1.07,1.07,0,0,0-.8-.27,2.39,2.39,0,0,0-.66.09,3.47,3.47,0,0,0-.65.25l-.15-.39a4.09,4.09,0,0,1,.7-.26A3,3,0,0,1,125.05,85.18Zm.26,2.35a2.83,2.83,0,0,0-1.28.3.84.84,0,0,0-.43.78.75.75,0,0,0,.27.63,1,1,0,0,0,.71.22,1.47,1.47,0,0,0,1.11-.4,1.57,1.57,0,0,0,.4-1.12v-.45Z"/><path class="cls-2" d="M134.49,89.79h-.59l-2.32-3.16-.75.73v2.43h-.5V83.7h.5v3.16l.35-.39.38-.41,2.26-2.36h.6l-2.48,2.59Z"/><path class="cls-2" d="M135.71,85.39v.33c0,.11,0,.22,0,.33h0a1.48,1.48,0,0,1,.34-.46,1.44,1.44,0,0,1,.51-.3,1.85,1.85,0,0,1,.69-.11,2,2,0,0,1,.87.17,1.18,1.18,0,0,1,.54.54,2,2,0,0,1,.19.94v3h-.48V86.86a1.36,1.36,0,0,0-.3-1,1.18,1.18,0,0,0-.87-.3,1.62,1.62,0,0,0-.83.19,1.19,1.19,0,0,0-.5.58,2.46,2.46,0,0,0-.17,1v2.47h-.47V83.31h.47Z"/><path class="cls-2" d="M140.54,83.58a.32.32,0,0,1,.25.09.4.4,0,0,1,.09.27.41.41,0,0,1-.09.28.32.32,0,0,1-.25.1.29.29,0,0,1-.23-.1.41.41,0,0,1-.09-.28.4.4,0,0,1,.09-.27A.29.29,0,0,1,140.54,83.58Zm.24,1.67v4.54h-.47V85.25Z"/><path class="cls-2" d="M144.31,85.17a1.59,1.59,0,0,1,1.18.4,1.68,1.68,0,0,1,.41,1.26v3h-.47V86.86a1.36,1.36,0,0,0-.3-1,1.19,1.19,0,0,0-.88-.3,1.4,1.4,0,0,0-1.12.43,1.94,1.94,0,0,0-.37,1.3v2.47h-.48V85.25h.39l.07.79h0a1.55,1.55,0,0,1,.85-.76A2.12,2.12,0,0,1,144.31,85.17Z"/><g id="one-colour-wheel"><g id="gold"><path id="path1262" class="cls-3" d="M78.58,0a15.72,15.72,0,0,0-5.74,1.06C66.59,3.55,62,10.79,61,19.65c-1.4,12.58,4.32,23.92,13.35,26.48l.94.28a11.32,11.32,0,0,0,1.61.36c6.91,1,13.34-5.35,15.82-15.54a35.21,35.21,0,0,0-.1-16.08C90.25,6,84.83.16,78.58,0Zm-.23.32c6.76.06,13,7.33,14.53,18.15C94.8,31.87,88.7,44.9,79.81,46.39h0c-7,1.18-13.71-5.71-15.79-16.17-2.38-12,1.9-24.81,9.61-28.74A10.18,10.18,0,0,1,78.35.32Zm.83,2.28c-5.89,0-10.91,6.35-12.45,16a34.1,34.1,0,0,0,.3,11.5l.19.88a25,25,0,0,0,2.58,6.62,17.05,17.05,0,0,0,2.73,3.59h0a9.48,9.48,0,0,0,5.4,2.72h0c4.31.6,8.84-2.69,11.39-8.27,6-13.25.54-32.2-9.58-33A5.44,5.44,0,0,0,79.18,2.6Zm-2.26.67.79.09,1.48,8.48c.84,4.53,1.67,8.34,1.68,8.39l-.54.14Zm2,.14a.83.83,0,0,1,.22,0,.73.73,0,0,1,.46.19.31.31,0,0,1,0,.1.48.48,0,0,1-.25.43l0,0h0a.78.78,0,0,1-.21,0,.51.51,0,0,1-.5-.5h0a.48.48,0,0,1,.06-.24A.83.83,0,0,1,78.9,3.41Zm-3.57.32a.36.36,0,0,1,0,.1s0,0,0,0h0a.36.36,0,0,1,0,.1h0a.46.46,0,0,1-.44.32.44.44,0,0,1-.27-.09h0l-.08-.06h0A2.89,2.89,0,0,1,75.33,3.73Zm.64.14c.17,0,.29,0,.3.08l1.27,6.32c.68,3.42,1.23,6.22,1.23,6.23Q76.34,10.59,74,4.66c0-.1.14-.22.38-.34a.73.73,0,0,0,.53.24.74.74,0,0,0,.72-.64A1.72,1.72,0,0,1,76,3.87Zm2.1,0,.29.06a.77.77,0,0,0,1.25.33,2.15,2.15,0,0,1,.46.18l.11,5.92h0c0,2,.06,3.92.08,5.88l-1.17-6.16c-.64-3.4-1.15-6.19-1.13-6.2Zm2.78,0a1.07,1.07,0,0,1,.59.22l0,4.12,0,7.86v4.07a2,2,0,0,0-.47,0v-1.7l0-7.94C80.94,7.15,80.84,3.93,80.85,3.92Zm1.69.82a.77.77,0,0,1,.75.46h0a.57.57,0,0,1-.47.56h-.1a.45.45,0,0,1-.2,0h0a.45.45,0,0,1-.17-.11h0a.66.66,0,0,1-.12-.17h0a.59.59,0,0,1,0-.22.41.41,0,0,1,0-.16.46.46,0,0,1,.12-.23h0A.48.48,0,0,1,82.54,4.74Zm-8.81.06s0,0,.07.06L77,12.7l3.17,7.74-.19.19c-.1.1-.19.16-.21.14l-3.26-7.83L73.3,5.15,73.52,5A.73.73,0,0,1,73.73,4.8Zm8,.46.2.14a.87.87,0,0,0,.85.68h0l.47.38h0l.18.16-.84,4.56-.84,4.57,0-1.6,0-5.24Zm2.65.64a1.34,1.34,0,0,1,.44.34l-1.36,7.08c-.39,2-.84,4.46-1.21,6.84h-.41L83,13.21Zm-11.73,0,2.52,5.92c1.37,3.23,2.48,5.89,2.47,5.89L74.18,13,70.77,8.17,71,7.81l.21-.28a.44.44,0,0,0,.2,0,.66.66,0,0,0,.6-.73A.73.73,0,0,0,72,6.57C72.29,6.16,72.56,5.87,72.6,5.91Zm13,1.43h.07l.13,0h.08l.07,0h0a.39.39,0,0,1,.1.08h0a.78.78,0,0,1,.11.18.63.63,0,0,1,0,.19.57.57,0,0,1-.08.29l0,.06h0v0l0,0-.05,0-.12.08a.69.69,0,0,1-.24.05.5.5,0,0,1-.24-.06h0l-.07,0h0l0,0h0l0,0,0,0h0l0,0h0l0,0h0l0,0h0l0,0h0l0,0a.69.69,0,0,1,0-.2.57.57,0,0,1,.06-.25.43.43,0,0,1,0-.07l.06-.07a.42.42,0,0,1,.15-.11l.06,0h0l.06,0Zm-1,.64a.49.49,0,0,1,.14.13.91.91,0,0,0,.46.59l.42.57.24.37-1.37,3.43h0a25.88,25.88,0,0,1-1.45,3.53c0-.07,1.5-8.51,1.53-8.6Zm-14,.49Q75.13,14.74,79.59,21a.84.84,0,0,1-.1.32l-.13.26-4.54-6.22L70.25,9.1C70.2,9,70.59,8.4,70.66,8.47ZM87,8.91c.08.13.21.38.28.52L82.94,20.3l-.24-.06-.22,0ZM69.79,10l3.62,4.88h0c2,2.66,3.58,4.84,3.57,4.84s-8.43-6.84-8.44-6.89a4.45,4.45,0,0,1,.32-.89.5.5,0,0,0,.24-.06.66.66,0,0,0,.37-.87.76.76,0,0,0-.12-.19A3.28,3.28,0,0,1,69.79,10Zm17.9.73h.07l.12,0,0,0h0l.07,0h0a.39.39,0,0,1,.1.08h0a.42.42,0,0,1,.11.18.63.63,0,0,1,0,.19.53.53,0,0,1,0,.13v0h0l0,0h0l0,0h0a.05.05,0,0,1,0,0h0a.05.05,0,0,1,0,0h0l0,0h0l0,0-.1.08h0l0,0h0l0,0h0l0,0a.63.63,0,0,1-.19,0,.54.54,0,0,1-.25-.06h0l0,0h0l0,0,0,0,0,0h0l0,0h0a.05.05,0,0,1,0,0h0l0,0h0a.05.05,0,0,0,0,0h0s0,0,0,0a.71.71,0,0,1,0-.2.78.78,0,0,1,0-.21h0a.41.41,0,0,1,.07-.11h0l0,0h0l0,0a.39.39,0,0,1,.1-.08l.06,0,.06,0,.08,0Zm-.94.47.09.17a.89.89,0,0,0,.28.59c.13.26.27.55.34.72l.16.4-1.78,2.58L84,18.21l1.37-3.57Zm2.15,1.19.17.51-2.72,3.93-2.69,4-.17-.18-.17-.18,2.77-4C88.12,13.43,88.8,12.43,88.9,12.34Zm-20.44.75C72,16,75.62,18.87,79.19,21.77c0,.05,0,.11,0,.39h0a1.8,1.8,0,0,1-.11.33c-.08,0-10.9-8.55-10.9-8.61S68.4,13.05,68.46,13.09Zm20.62,1.19h0a.5.5,0,0,1,.17,0l.08,0h0a.58.58,0,0,1,.31.51.78.78,0,0,1,0,.16h0a.08.08,0,0,1,0,0h0l0,0h0l0,0h0l0,0h0l0,0h0l0,0-.06,0h0l0,0h0l0,0h0l0,0a.63.63,0,0,1-.19,0l-.17,0,0,0h0a.05.05,0,0,1,0,0h0l0,0h0l0,0h0l0,0h0l0,0h0l0,0h0l-.06-.07h0l0,0h0a.68.68,0,0,1-.07-.28.6.6,0,0,1,.1-.32h0l.06-.07.06-.06.08-.05.07,0a.31.31,0,0,1,.13,0Zm-.91.22.07.24a.34.34,0,0,0,0,.1.87.87,0,0,0,.2.56,5.36,5.36,0,0,1,.28,1.17L86.6,18.34l-2.16,1.77s.37-.59.9-1.38l1.89-2.84Zm-20.25.21q4.56,3.41,9,6.9h0l-4.92-1.72c-4.53-1.62-4.88-1.76-4.88-1.86a9.65,9.65,0,0,1,.18-1,.63.63,0,0,0,.22-.07.66.66,0,0,0,.28-.9.61.61,0,0,0-.23-.25A7.77,7.77,0,0,1,67.92,14.71Zm22.2,1.41.11.45-2.91,2.52-3.11,2.69s-.25-.47-.21-.51Q87,18.67,90.12,16.12ZM90,17.91h0l.17,0a.64.64,0,0,1,.22.14.39.39,0,0,1,.08.1l0,0h0a.58.58,0,0,1,.06.17.37.37,0,0,1,0,.11.55.55,0,0,1,0,.17.16.16,0,0,1,0,.08h0l0,0h0l-.08.1h0l0,0h0l0,0h0l0,0h0l0,0-.12,0h-.24l0,0h0l-.08,0h0l0,0h0l0,0,0,0h0a.86.86,0,0,1-.07-.1h0s0,0,0,0h0s0,0,0,0h0s0,0,0,0h0a.77.77,0,0,1,0-.15.57.57,0,0,1,0-.18h0l0-.08h0l0-.07h0a.6.6,0,0,1,.27-.21l.13,0ZM89,18s0,.28.08.48h0v0a.78.78,0,0,0,.07.33c.06.38.12.8.13,1l0,.14L87,20.86l-2.38.93,2.31-2C88.05,18.75,89,17.94,89,18Zm-21.88.5Q73.06,20.58,79,22.73h0a1.14,1.14,0,0,1,0,.39l0,.36-6-2-6-2a2.89,2.89,0,0,1,.15-1Zm23.67,1.3.05.44L88,21.4h0l-3.15,1.33a1.79,1.79,0,0,0-.36-.37ZM67,19.88l5.36,1.73,5.34,1.76-1.48,0-5.45.06-4,0v-.62c0-.17,0-.4,0-.62a.5.5,0,0,0,.19-.1.67.67,0,0,0,.13-.93.66.66,0,0,0-.26-.21A7.41,7.41,0,0,1,67,19.88Zm15.64.58c.57,0,1.15.49,1.5,1.52.14.38.15.37-.64.37-.58,0-.65,0-.79.11a2.26,2.26,0,0,0-.12,2.74l.2.21H84.2l0,.18a3,3,0,0,1-1,1.56c-1.71.89-3-3.12-1.74-5.62C81.71,20.83,82.15,20.48,82.59,20.46Zm6.83.58,0,.32a.86.86,0,0,1,0,.17,1,1,0,0,0,0,.3.9.9,0,0,0,.09.4c0,.05,0,.08,0,.13l0,.69-1,0-2.27.06-1.22,0,0-.11c0-.13-.26,0,2.22-1.08Zm.84.23h.19l0,0h0a.2.2,0,0,1,.08,0h0l.11.08a.54.54,0,0,1,.17.4.57.57,0,0,1,0,.18l0,.08h0l0,.07h0s0,0,0,0h0l0,0h0l0,0h0l0,0h0l0,0h0l0,0h0l0,0a.69.69,0,0,1-.2,0l-.17,0h0l0,0h0l-.07,0h0l-.06-.05h0l0,0h0l0,0h0l0,0h0v0s0,0,0,0h0l0,0h0s0,0,0,0h0s0,0,0,0h0s0,0,0,0a.37.37,0,0,1,0-.11v0h0a.31.31,0,0,1,0-.13h0a.08.08,0,0,1,0,0h0s0,0,0,0h0l0,0h0l0,0h0v0l0,0h0l0,0h0a.18.18,0,0,1,.07-.05l0,0,0,0a.53.53,0,0,1,.12,0Zm-6,1.27c.72,0,1,1.92.3,2.5h0c-.81.72-1.39-1.53-.6-2.33A.45.45,0,0,1,84.25,22.54Zm6.75.79v.47l-2.55.08-3,.14-.36,0,0-.31v-.3h.16l2.9-.07c1,0,1.7-.05,2.87,0Zm-12.06.34V24l0,.33h-.25l-5.42.24-5.86.26-.69,0V24c2-.07,4.07-.1,6.11-.15l5.19-.12ZM89.51,24l0,.72a.79.79,0,0,0-.1.4,1,1,0,0,0,.05.3c0,.14,0,.39,0,.43l0,.18-2.13-.75-2.18-.77s0-.08,0-.16l0-.13L87,24.17l2.23-.1Zm-10.57.44a4.18,4.18,0,0,1,.11.68l-5.79,2.45-5.83,2.45a2.41,2.41,0,0,1-.18-.93Q73.09,26.78,78.94,24.48Zm11.29.11h.08l.08,0h.08a.57.57,0,0,1,.18.12.59.59,0,0,1,.16.3.41.41,0,0,1,0,.11.53.53,0,0,1-.13.36h0l0,0,0,.05a.1.1,0,0,0-.05,0h0l-.07,0a.59.59,0,0,1-.23.05.6.6,0,0,1-.29-.08l-.07,0h0l0,0h0l0,0h0l0,0h0s0,0,0,0h0v0h0l0,0h0s0,0,0,0h0s0,0,0,0h0a.06.06,0,0,0,0,0s0-.07,0-.11a.54.54,0,0,1,.06-.25.41.41,0,0,1,.07-.11h0l0,0a.44.44,0,0,1,.15-.12l.11,0h.12Zm-13.06.1-4.93,1.94h0l-5,2c-.08,0-.1-.06-.23-1.11a.6.6,0,0,0,.22-.16.69.69,0,0,0-.06-.95h0a.71.71,0,0,0-.29-.14c0-.55-.09-1-.08-1l10.4-.51Zm7.74.17s4.75,1.59,5.84,2l-.07.44-6-2c-.07,0-.06-.05.08-.24Zm-5.83.55a1.79,1.79,0,0,1,.2.59l-3.73,3.23h0c-2.29,2-4.54,4-6.71,5.75-.06-.13-.11-.26-.16-.4l-.14-.35,5.25-4.42Zm5.47.26s4.66,1.52,4.69,1.55a6.26,6.26,0,0,1-.12.93.94.94,0,0,0-.13.46.88.88,0,0,0,0,.17l-.09.43S84.53,25.69,84.55,25.67Zm-.29.25,5.84,4.62L90,31l-2.8-2.13C86.12,28,85.07,27.2,84,26.36l.23-.44Zm-4.85.31.13.24a1.75,1.75,0,0,1,.13.27L75.5,33h0l-4.21,6.29c-.05,0-.43-.49-.4-.56l4.27-6.3Zm-2.64.17c.08,0-.61.57-4.24,3.57-2.29,1.89-4.19,3.44-4.22,3.46a5.39,5.39,0,0,1-.34-1,.74.74,0,0,0,.21-.25.68.68,0,0,0-.3-.9.57.57,0,0,0-.25-.06,6.12,6.12,0,0,1-.18-.81s1.09-.53,4.34-1.9l4.72-2A2.24,2.24,0,0,1,76.77,26.4Zm7,.42,2.68,3.75c1.47,2.07,2.5,3.52,2.51,3.55l-.14.4-2.41-3.3-2.78-3.81-.18-.26.16-.16ZM79.85,27s.1,0,.2.12l.17.15-2.71,7c-1.05,2.69-2.05,5.46-3.17,8.09a1.76,1.76,0,0,1-.43-.31S79.82,27,79.85,27Zm.64.42s.08,0,.18,0,.2.06.18.17l-1.39,7.92c-.75,4.29-1.39,7.88-1.4,7.89h-.45s2.79-15.72,2.83-15.91S80.46,27.44,80.49,27.43Zm2.52,0h0l4.11,10.11-.23.34-.32-.79-2.2-5.29-1.79-4.31.21,0A.69.69,0,0,1,83,27.45Zm-1.89,0h.4l0,4.95,0,7.63v2.67l-.18.1-.18.09,0-4,0-7.72Zm.9,0h.2l.08.36c.74,4,1.73,9.2,2.36,12.61l-.27.27c0,.05-2.57-13.17-2.57-13.21S81.91,27.49,82,27.49Zm2.61,0,2,1.54c1.07.83,1.95,1.51,1.95,1.53s-.12.44-.21.76a.88.88,0,0,0-.28.9.74.74,0,0,1,0,.14l-1.76-2.46C85.35,28.57,84.59,27.49,84.63,27.52Zm5.21.52h.08l.08,0h.08a.57.57,0,0,1,.18.12.59.59,0,0,1,.16.3.45.45,0,0,1,0,.11.53.53,0,0,1-.13.36h0l0,0,0,.05,0,0h0a.53.53,0,0,1-.3.09.6.6,0,0,1-.29-.08l-.07-.05h0l0,0h0l0,0h0l0,0h0l0,0h0v0h0l0,0h0s0,0,0,0h0l0,0h0a.06.06,0,0,0,0,0s0-.07,0-.11a.54.54,0,0,1,.06-.25.41.41,0,0,1,.07-.11h0l0,0a.33.33,0,0,1,.15-.11.09.09,0,0,1,.06,0l.09,0Zm-12.76.18L70.32,38a10.87,10.87,0,0,1-.56-1,.8.8,0,0,0,.08-.16.67.67,0,0,0-.42-.85.47.47,0,0,0-.17,0,2.32,2.32,0,0,1-.25-.68Q73,31.72,77.08,28.22Zm7,1,1.75,2.34,1.71,2.3-.1.25h0l-.36.75a.88.88,0,0,0-.34.69l-.06.14-1-2.46L84.34,30a5.08,5.08,0,0,1-.28-.75Zm-6.57,1.35L73.18,41.37h0s0,.06-.06.06a5,5,0,0,1-.47-.46.61.61,0,0,0,0-.18.67.67,0,0,0-.6-.74H72a.47.47,0,0,0-.17,0,.87.87,0,0,1-.13-.15l-.27-.33,2.18-3.27,3-4.53c.47-.69.85-1.25.86-1.24Zm5.65.29L84.48,34l1.32,3.14-.23.35-.26.35a.89.89,0,0,0-.68.84v0l-.74-3.91C83.47,32.6,83.14,30.86,83.14,30.85Zm5.79.6h0l.17,0h0l0,0h0a.57.57,0,0,1,.31.51.88.88,0,0,1,0,.16h0l0,.07h0l-.07.11h0l0,0h0l0,0,0,0h0l-.05,0h0l0,0h0l-.12,0h-.29l0,0h0l0,0h0l0,0h0l0,0h0l0,0h0l0,0h0l-.07-.11h0a.52.52,0,0,1-.07-.27.51.51,0,0,1,.06-.25.59.59,0,0,1,0-.08h0l.06-.07a.6.6,0,0,1,.21-.14l.13,0Zm-10.17.39q-1,5.44-2,10.89a.12.12,0,0,1-.13.1l-.29,0a.7.7,0,0,0-.39-.42,1,1,0,0,0-.23-.06h-.1a.71.71,0,0,0-.52.29,2.42,2.42,0,0,1-.51-.14Q76.67,37.15,78.76,31.84Zm3.07,0,.81,4.05L83.45,40a4.22,4.22,0,0,1-.51.46,1,1,0,0,0-.73.38.91.91,0,0,0-.14.3l-.07,0-.12.08,0-.18,0-4.7Zm-1.53.46,0,4.9v4.89l-.28.12-.16,0a.86.86,0,0,0-.39-.06.84.84,0,0,0-.66.39l-.1,0-.28.06L79.11,39l.92-5.2C80.17,33,80.3,32.3,80.3,32.3ZM87.58,35h0a.47.47,0,0,1,.17,0,.61.61,0,0,1,.22.13.58.58,0,0,1,.17.41.88.88,0,0,1,0,.17l0,.08h0l-.1.14h0l0,0h0l0,0h0l-.07,0h0l0,0h0l0,0-.11,0H87.6l-.17,0h0l0,0h0l0,0h0l0,0h0L87.21,36h0a.69.69,0,0,1-.11-.13h0a.67.67,0,0,1-.06-.28.58.58,0,0,1,.15-.39l.07-.06.07-.05.08,0,.12,0Zm-2.1,3.16h0a.56.56,0,0,1,.49.29h0a.54.54,0,0,1,.07.27.57.57,0,0,1,0,.18L86,39h0l0,0h0l0,0h0l-.06.07h0l0,0h0l0,0h0l0,0h0l0,0h0l0,0a.64.64,0,0,1-.2,0h-.17l0,0h0l-.07,0h0l0,0h0v0l0,0a.08.08,0,0,1,0,0h0L85,39,85,38.89h0s0,0,0,0h0a.78.78,0,0,1,0-.16.55.55,0,0,1,0-.17h0l0-.08h0l0-.07h0l.06-.07.06-.06.07-.05.12,0,.09,0ZM83,40.77a.48.48,0,0,1,.17,0,.3.3,0,0,1,.11.06l.12.11a.64.64,0,0,1,.12.25h0a.8.8,0,0,1-.94.6h0a.6.6,0,0,1-.18-.75h0l0,0,0,0v0l.06-.06,0,0h0l.08-.06h0a.49.49,0,0,1,.21-.08h0a.48.48,0,0,1,.17,0Zm-3.47,1.72h.13a.52.52,0,0,1,.41.47.41.41,0,0,1,0,.11,1.07,1.07,0,0,1-1,.2.49.49,0,0,1-.08-.23.53.53,0,0,1,.32-.52l0,0h0l.13,0Zm-3.9.08a.49.49,0,0,1,.4.2h0a.35.35,0,0,1,.08.16v.14s0,0,0,.06a2.85,2.85,0,0,1-.86-.31l0-.07,0,0h0a.41.41,0,0,1,.31-.14Z"/></g></g></g></g></svg>