<svg xmlns="http://www.w3.org/2000/svg" viewBox="0 0 326.93 46.87"><defs><style>.cls-1{fill:#b78730;}.cls-2{fill:#fff;}</style></defs><title>left-one-line-reverse</title><g id="Layer_2" data-name="Layer 2"><g id="Layer_1-2" data-name="Layer 1"><g id="one-colour-wheel"><g id="gold"><path id="path1262" class="cls-1" d="M17.79,0A15.81,15.81,0,0,0,12,1.06C5.8,3.55,1.2,10.79.21,19.65c-1.4,12.58,4.32,23.92,13.35,26.48l.94.28a11.32,11.32,0,0,0,1.61.36c6.91,1,13.34-5.35,15.82-15.54a35.35,35.35,0,0,0-.1-16.08C29.46,6,24,.16,17.79,0Zm-.23.32c6.76.06,13,7.33,14.53,18.15C34,31.87,27.91,44.9,19,46.39h0c-7,1.18-13.7-5.71-15.78-16.17C.85,18.21,5.12,5.41,12.84,1.48A10.15,10.15,0,0,1,17.56.32Zm.82,2.28c-5.88,0-10.9,6.35-12.44,16a33.85,33.85,0,0,0,.3,11.5l.19.88A24.31,24.31,0,0,0,9,37.55a16.41,16.41,0,0,0,2.73,3.59h0a9.46,9.46,0,0,0,5.39,2.72h0c4.32.6,8.85-2.69,11.4-8.27,6-13.25.53-32.2-9.58-33Zm-2.25.67.79.09,1.48,8.48c.84,4.53,1.67,8.34,1.68,8.39l-.54.14Zm2,.14a1.07,1.07,0,0,1,.68.2.31.31,0,0,1,0,.1.5.5,0,0,1-.25.43l0,0h0a.65.65,0,0,1-.2,0,.51.51,0,0,1-.5-.5h0a.48.48,0,0,1,.06-.24A.76.76,0,0,1,18.11,3.41Zm-3.57.32s0,.07,0,.1,0,0,0,0h0a.36.36,0,0,1,0,.1h0a.46.46,0,0,1-.44.32.44.44,0,0,1-.27-.09h0l-.08-.06h0A2.89,2.89,0,0,1,14.54,3.73Zm.63.14c.18,0,.29,0,.31.08l1.27,6.32C17.43,13.69,18,16.49,18,16.5q-2.43-5.91-4.8-11.84c0-.1.14-.22.38-.34a.73.73,0,0,0,.53.24.74.74,0,0,0,.72-.64A1.72,1.72,0,0,1,15.17,3.87Zm2.11,0,.29.06a.77.77,0,0,0,.73.53.79.79,0,0,0,.52-.2,2.15,2.15,0,0,1,.46.18l.11,5.92h0c0,2,.05,3.92.07,5.88L18.3,10.11c-.64-3.4-1.15-6.19-1.13-6.2Zm2.78,0a1.07,1.07,0,0,1,.59.22l0,4.12,0,7.86v4.07a2,2,0,0,0-.47,0v-1.7l-.05-7.94C20.15,7.15,20.05,3.93,20.06,3.92Zm1.68.82a.77.77,0,0,1,.76.46h0a.57.57,0,0,1-.48.56h-.09a.45.45,0,0,1-.2,0h0a.45.45,0,0,1-.17-.11h0a.66.66,0,0,1-.12-.17h0a.59.59,0,0,1-.05-.22.78.78,0,0,1,0-.16.58.58,0,0,1,.13-.23h0A.44.44,0,0,1,21.74,4.74Zm-8.81.06s.05,0,.08.06l3.22,7.84,3.17,7.74-.19.19c-.1.1-.19.16-.21.14l-3.26-7.83L12.51,5.15,12.73,5A1,1,0,0,1,12.93,4.8Zm8,.46.2.14a.87.87,0,0,0,.85.68h0l.47.38h0l.18.16-.84,4.56L21,15.74l0-1.6,0-5.24Zm2.65.64a1.34,1.34,0,0,1,.44.34l-1.36,7.08c-.39,2-.84,4.46-1.21,6.84H21l1.26-6.94Zm-11.73,0,2.52,5.92c1.37,3.23,2.48,5.89,2.47,5.89L13.38,13,10,8.17l.25-.36.21-.28a.44.44,0,0,0,.2,0,.66.66,0,0,0,.6-.73.73.73,0,0,0-.07-.24C11.5,6.16,11.77,5.87,11.81,5.91Zm13,1.43h.07l.12,0h.08l.08,0h0a.34.34,0,0,1,.09.08h0a.42.42,0,0,1,.11.18.43.43,0,0,1,0,.19.57.57,0,0,1-.08.29l0,.06h0l0,0v0l-.05,0a.57.57,0,0,1-.13.08.59.59,0,0,1-.23.05.57.57,0,0,1-.25-.06h0l-.07,0h0l0,0h0l0,0,0,0h0l0,0h0l0,0h0l0,0h0l0,0h0s0,0,0,0a.69.69,0,0,1,0-.2.57.57,0,0,1,.06-.25.16.16,0,0,1,0-.07l.06-.07a.49.49,0,0,1,.14-.11l.07,0h0l.06,0Zm-1,.64a.49.49,0,0,1,.14.13.91.91,0,0,0,.46.59c.13.18.25.33.41.57l.25.37-1.37,3.43h0a25.88,25.88,0,0,1-1.45,3.53c0-.07,1.5-8.51,1.53-8.6Zm-14,.49Q14.34,14.74,18.8,21a.84.84,0,0,1-.1.32l-.13.26L14,15.38,9.46,9.1C9.41,9,9.8,8.4,9.87,8.47Zm16.31.44c.08.13.2.38.27.52L22.15,20.3l-.24-.06-.22,0ZM9,10l3.62,4.88h0c2,2.66,3.58,4.84,3.57,4.84s-8.43-6.84-8.44-6.89a4.12,4.12,0,0,1,.31-.89.54.54,0,0,0,.25-.06A.66.66,0,0,0,8.68,11a.76.76,0,0,0-.12-.19A3.28,3.28,0,0,1,9,10Zm17.89.73H27l.12,0,0,0h0l.07,0h0a.39.39,0,0,1,.1.08h0a.54.54,0,0,1,.11.18.63.63,0,0,1,0,.19.53.53,0,0,1,0,.13v0h0l0,0h0l0,0h0a.05.05,0,0,1,0,0h0s0,0,0,0h0l0,0h0l0,0-.09.08h0l0,0h0l0,0h0l0,0a.63.63,0,0,1-.19,0,.54.54,0,0,1-.25-.06h0l0,0h0l0,0,0,0,0,0h0l0,0h0l0,0h0l0,0h0a.05.05,0,0,0,0,0h0s0,0,0,0a.48.48,0,0,1,0-.2.78.78,0,0,1,0-.21h0l.06-.11h0l0,0h0l0,0a.39.39,0,0,1,.1-.08l.06,0,0,0,.09,0Zm-.93.47.09.17a.85.85,0,0,0,.28.59c.12.26.26.55.33.72l.17.4L25,15.61l-1.8,2.6,1.37-3.57Zm2.15,1.19.17.51-2.72,3.93-2.69,4-.17-.18-.18-.18,2.77-4C27.33,13.43,28,12.43,28.11,12.34Zm-20.44.75c3.58,2.87,7.16,5.78,10.73,8.68.05.05.05.11,0,.39h0a1.8,1.8,0,0,1-.11.33c-.08,0-10.9-8.55-10.9-8.61S7.61,13.05,7.67,13.09Zm20.62,1.19h0a.52.52,0,0,1,.17,0l.08,0h0a.58.58,0,0,1,.31.51.78.78,0,0,1,0,.16h0s0,0,0,0h0s0,0,0,0h0l0,0h0l0,0h0l0,0h0l0,0-.06,0h0l0,0h0l0,0h0l0,0a.63.63,0,0,1-.19,0l-.18,0,0,0h0l0,0h0l0,0h0l0,0h0l0,0h0l0,0h0l0,0h0l-.05-.07h0l0,0h0a.55.55,0,0,1-.07-.28.6.6,0,0,1,.1-.32h0l.06-.07.06-.06.07-.05.08,0a.31.31,0,0,1,.13,0Zm-.91.22.07.24a.34.34,0,0,0,0,.1.87.87,0,0,0,.2.56,5.36,5.36,0,0,1,.28,1.17l-2.11,1.77-2.16,1.77s.37-.59.9-1.38l1.89-2.84Zm-20.25.21q4.56,3.41,9.05,6.9h0l-4.92-1.72C6.73,18.27,6.38,18.13,6.38,18s.08-.5.17-1A.62.62,0,0,0,6.78,17a.66.66,0,0,0,.28-.9.69.69,0,0,0-.23-.25A7.77,7.77,0,0,1,7.13,14.71Zm22.2,1.41.11.45-2.91,2.52-3.11,2.69c-.05,0-.25-.47-.21-.51Q26.25,18.67,29.33,16.12Zm-.16,1.79h0l.17,0a.74.74,0,0,1,.22.14.39.39,0,0,1,.08.1l0,0h0a.58.58,0,0,1,.06.17.37.37,0,0,1,0,.11.55.55,0,0,1,0,.17l0,.08h0l0,0h0l-.08.1h0l0,0h0l0,0h0l-.06,0h0l0,0-.12,0H29l0,0h0l-.07,0h0l0,0h0l0,0s0,0,0,0h0a.86.86,0,0,1-.07-.1h0s0,0,0,0h0a.06.06,0,0,1,0,0h0s0,0,0,0h0a.77.77,0,0,1,0-.15.57.57,0,0,1,0-.18h0l0-.08h0l0-.07h0a.56.56,0,0,1,.27-.21.31.31,0,0,1,.13,0Zm-.94.05a4.74,4.74,0,0,1,.09.48h0v0a.78.78,0,0,0,.07.33c.06.38.12.8.13,1l0,.14-2.37.93-2.38.93,2.31-2C27.26,18.75,28.22,17.94,28.23,18Zm-21.88.5q5.93,2.12,11.84,4.27h0a1.14,1.14,0,0,1,0,.39l0,.36-6-2-6-2a2.89,2.89,0,0,1,.14-1ZM30,19.76l0,.44L27.2,21.4h0L24,22.73a1.73,1.73,0,0,0-.35-.37Zm-23.87.12,5.36,1.73,5.34,1.76-1.48,0-5.45.06-4,0v-.62c0-.17,0-.4,0-.62a.58.58,0,0,0,.19-.1.67.67,0,0,0,.13-.93A.66.66,0,0,0,6,21,7.41,7.41,0,0,1,6.16,19.88Zm15.64.58c.57,0,1.14.49,1.5,1.52.14.38.15.37-.64.37-.58,0-.65,0-.79.11a2.26,2.26,0,0,0-.12,2.74l.2.21h1.46l-.05.18a3,3,0,0,1-1.05,1.56c-1.7.89-2.94-3.12-1.73-5.62C20.92,20.83,21.36,20.48,21.8,20.46Zm6.83.58,0,.32s0,.12,0,.17a1,1,0,0,0-.05.3.9.9,0,0,0,.09.4c0,.05,0,.08,0,.13l0,.69-1,0-2.26.06-1.22,0,0-.11c-.05-.13-.27,0,2.22-1.08Zm.84.23h.19l0,0h0a.2.2,0,0,1,.08,0h0a.39.39,0,0,1,.1.08.55.55,0,0,1,.18.4A.57.57,0,0,1,30,22l0,.08h0l-.05.07h0s0,0,0,0h0l0,0h0l0,0h0l0,0h0l0,0h0a.05.05,0,0,1,0,0h0l0,0a.58.58,0,0,1-.19,0l-.17,0h0l0,0h0l-.07,0h0l-.07-.05h0l0,0h0l0,0h0l0,0h0v0s0,0,0,0h0l0,0h0l0,0h0s0,0,0,0h0s0,0,0,0a.37.37,0,0,1,0-.11v0h0a.59.59,0,0,1,0-.13h0s0,0,0,0h0a.08.08,0,0,1,0,0h0l0,0h0l0,0h0v0l0,0h0l0,0h0l.06-.05,0,0,0,0,.12,0Zm-6,1.27c.72,0,.95,1.92.3,2.5h0c-.81.72-1.39-1.53-.6-2.33A.43.43,0,0,1,23.46,22.54Zm6.75.79v.47l-2.55.08-3,.14-.36,0,0-.31v-.3h.16l2.9-.07c1,0,1.7-.05,2.87,0Zm-12.06.34v.66h-.24l-5.42.24-5.86.26-.69,0V24c2-.07,4.07-.1,6.11-.15l5.19-.12ZM28.71,24l0,.72a.79.79,0,0,0-.1.4,1,1,0,0,0,.05.3c0,.14,0,.39,0,.43l0,.18-2.13-.75-2.18-.77a.2.2,0,0,1,0-.16l0-.13,1.93-.09,2.23-.1Zm-10.56.44a5.65,5.65,0,0,1,.11.68l-5.8,2.45L6.64,30.06a2.24,2.24,0,0,1-.18-.93Q12.29,26.78,18.15,24.48Zm11.29.11h.08l.08,0h.08a.71.71,0,0,1,.18.12.59.59,0,0,1,.16.3.41.41,0,0,1,0,.11.53.53,0,0,1-.13.36h0l0,0,0,.05-.06,0h0l-.07,0a.59.59,0,0,1-.23.05.55.55,0,0,1-.29-.08l-.07,0h0l0,0h0l0,0h0l0,0h0l0,0h0v0h0l0,0h0s0,0,0,0h0s0,0,0,0h0a.06.06,0,0,0,0,0s0-.07,0-.11a.54.54,0,0,1,.06-.25A.41.41,0,0,1,29,24.8h0l0,0a.44.44,0,0,1,.15-.12l.1,0h.13Zm-13.06.1-4.93,1.94h0l-5,2c-.08,0-.1-.06-.23-1.11a.6.6,0,0,0,.22-.16.68.68,0,0,0-.07-.95h0a.62.62,0,0,0-.28-.14,8,8,0,0,1-.08-1c3.47-.18,6.93-.35,10.4-.51Zm7.74.17s4.75,1.59,5.84,2l-.08.44-6-2c-.06,0-.05-.05.09-.24Zm-5.83.55a1.79,1.79,0,0,1,.2.59l-3.73,3.23h0c-2.29,2-4.54,4-6.71,5.75-.06-.13-.12-.26-.17-.4l-.13-.35L13,29.81Zm5.46.26s4.67,1.52,4.7,1.55a6.26,6.26,0,0,1-.12.93.94.94,0,0,0-.13.46.88.88,0,0,0,0,.17l-.09.43S23.74,25.69,23.75,25.67Zm-.28.25,5.83,4.62-.11.43-2.81-2.13c-1.05-.81-2.1-1.64-3.14-2.48l.23-.44Zm-4.85.31.13.24a1.35,1.35,0,0,1,.12.27L14.71,33h0L10.5,39.32c-.05,0-.43-.49-.4-.56l4.27-6.3ZM16,26.4c.08,0-.61.57-4.24,3.57-2.29,1.89-4.19,3.44-4.22,3.46a5.84,5.84,0,0,1-.35-1,.67.67,0,0,0,.22-.25.68.68,0,0,0-.3-.9.57.57,0,0,0-.25-.06,6.12,6.12,0,0,1-.18-.81s1.08-.53,4.34-1.9l4.72-2A2.24,2.24,0,0,1,16,26.4Zm7,.42,2.68,3.75c1.47,2.07,2.5,3.52,2.51,3.55l-.15.4-2.4-3.3-2.78-3.81-.19-.26.17-.16ZM19.06,27s.1,0,.19.12l.17.15-2.7,7c-1,2.69-2,5.46-3.17,8.09a1.76,1.76,0,0,1-.43-.31S19,27,19.06,27Zm.64.42s.08,0,.18,0,.2.06.18.17l-1.39,7.92c-.76,4.29-1.39,7.88-1.4,7.89h-.45s2.79-15.72,2.83-15.91S19.67,27.44,19.7,27.43Zm2.52,0h0l4.1,10.11-.22.34-.32-.79-2.2-5.29-1.79-4.31.21,0A.69.69,0,0,1,22.22,27.45Zm-1.89,0h.4l0,4.95,0,7.63v2.67l-.18.1-.18.09,0-4,0-7.72Zm.9,0h.2l.08.36c.74,4,1.73,9.2,2.36,12.61l-.27.27C23.55,40.78,21,27.56,21,27.52S21.12,27.49,21.23,27.49Zm2.61,0,2,1.54c1.07.83,1.95,1.51,1.95,1.53s-.12.44-.21.76a.88.88,0,0,0-.28.9s0,.09,0,.14l-1.76-2.46C24.56,28.57,23.8,27.49,23.84,27.52Zm5.21.52h.08l.08,0h.08a.57.57,0,0,1,.18.12.59.59,0,0,1,.16.3.45.45,0,0,1,0,.11.59.59,0,0,1-.13.36h0l0,0,0,.05-.06,0h0a.55.55,0,0,1-.3.09.55.55,0,0,1-.29-.08l-.07-.05h0l0,0h0l0,0h0l0,0h0l0,0h0l0,0h0l0,0h0s0,0,0,0h0s0,0,0,0h0s0,0,0,0,0-.07,0-.11a.54.54,0,0,1,.06-.25.41.41,0,0,1,.07-.11h0l0,0a.33.33,0,0,1,.15-.11.09.09,0,0,1,.06,0l.09,0Zm-12.76.18L9.53,38A10.87,10.87,0,0,1,9,37a.8.8,0,0,0,.08-.16A.67.67,0,0,0,8.63,36a.51.51,0,0,0-.17,0,2.32,2.32,0,0,1-.25-.68Q12.23,31.72,16.29,28.22Zm7,1L25,31.55l1.71,2.3-.1.25h0c0,.11-.2.44-.35.75a.88.88,0,0,0-.34.69l-.06.14-1-2.46L23.55,30a5.08,5.08,0,0,1-.28-.75ZM16.7,30.56,12.38,41.37h0s0,.06-.06.06a5,5,0,0,1-.47-.46,1.21,1.21,0,0,0,.05-.18.68.68,0,0,0-.6-.74h-.09a.47.47,0,0,0-.17,0,.87.87,0,0,1-.13-.15l-.27-.33,2.18-3.27,3-4.53c.46-.69.85-1.25.86-1.24Zm5.65.29L23.69,34,25,37.13l-.23.35-.26.35a.89.89,0,0,0-.68.84v0l-.74-3.91C22.68,32.6,22.34,30.86,22.35,30.85Zm5.79.6h0l.17,0h0l0,0h0a.57.57,0,0,1,.31.51.45.45,0,0,1,0,.16h0l0,.07h0l-.07.11h0l0,0h0l0,0,0,0h0l-.05,0h0l0,0h0a.27.27,0,0,1-.12,0H28l0,0h0l0,0h0l0,0h0l0,0h0l0,0h0l0,0h0l-.07-.11h0A.52.52,0,0,1,27.6,32a.51.51,0,0,1,.06-.25.2.2,0,0,1,0-.08h0l.06-.07a.6.6,0,0,1,.21-.14l.13,0ZM18,31.84q-1,5.44-2,10.89a.12.12,0,0,1-.13.1l-.29,0a.7.7,0,0,0-.39-.42L15,42.32h-.1a.71.71,0,0,0-.52.29,2.42,2.42,0,0,1-.51-.14Q15.88,37.15,18,31.84Zm3.07,0,.81,4.05L22.66,40a4.22,4.22,0,0,1-.51.46.93.93,0,0,0-.73.38.91.91,0,0,0-.14.3l-.07,0-.12.08,0-.18,0-4.7Zm-1.53.46,0,4.9v4.89l-.28.12-.16,0a.88.88,0,0,0-1.06.33l-.09,0-.28.06L18.32,39l.91-5.2C19.38,33,19.51,32.3,19.51,32.3ZM26.78,35h0A.51.51,0,0,1,27,35a.61.61,0,0,1,.22.13.58.58,0,0,1,.17.41.88.88,0,0,1,0,.17l0,.08h0a.55.55,0,0,1-.09.14h0l0,0h0l0,0h0l-.07,0h0l0,0h0l0,0-.11,0h-.08l-.17,0h0a.05.05,0,0,1,0,0h0l0,0h0l0,0h0L26.42,36h0a.69.69,0,0,1-.11-.13h0a.68.68,0,0,1-.07-.28.59.59,0,0,1,.16-.39l.06-.06.08-.05.08,0,.12,0Zm-2.09,3.16h0a.56.56,0,0,1,.49.29h0a.68.68,0,0,1,.07.27.57.57,0,0,1,0,.18l0,.08h0l0,0h0s0,0,0,0h0a.18.18,0,0,1-.05.07h0l0,0h0l0,0h0l0,0h0l0,0h0l0,0a.69.69,0,0,1-.2,0h-.17l0,0h0l-.07,0h0l0,0h0l0,0,0,0,0,0h0L24.24,39l-.06-.12h0s0,0,0,0h0a.78.78,0,0,1,0-.16.55.55,0,0,1,0-.17h0a.16.16,0,0,1,0-.08h0a.25.25,0,0,1,0-.07h0l.06-.07.06-.06.07-.05.12,0,.09,0Zm-2.44,2.64a.48.48,0,0,1,.17,0,.3.3,0,0,1,.11.06l.12.11a.64.64,0,0,1,.12.25h0a.8.8,0,0,1-.95.6h0a.59.59,0,0,1-.18-.75h0l0,0,0,0v0l.05-.06,0,0h0l.08-.06h0a.6.6,0,0,1,.21-.08h0a.48.48,0,0,1,.17,0Zm-3.47,1.72h.13a.52.52,0,0,1,.41.47.41.41,0,0,1,0,.11,1.07,1.07,0,0,1-1,.2.49.49,0,0,1-.08-.23.52.52,0,0,1,.32-.52l.05,0h0l.13,0Zm-3.9.08a.49.49,0,0,1,.4.2h0a.48.48,0,0,1,.08.16v0a.49.49,0,0,1,0,.12s0,0,0,.06a2.85,2.85,0,0,1-.86-.31l0-.07,0,0h0a.41.41,0,0,1,.31-.14Z"/></g></g><path class="cls-2" d="M40.78,19.15c.32,0,.63,0,.93,0l.88,0a.51.51,0,0,1,0,.24c0,.11,0,.17,0,.18l-.27,0a1.87,1.87,0,0,0-.42.13.33.33,0,0,0-.19.31A3.87,3.87,0,0,0,42,21c.08.22.19.51.32.88s.28.76.44,1.2.32.88.49,1.32l.45,1.22q.2.55.33.9c.08.24.13.37.14.39l.2-.46.41-1,.54-1.36c.21-.49.41-1,.61-1.51l.58-1.43a4.27,4.27,0,0,0,.18-.54,1.91,1.91,0,0,0,.07-.48.38.38,0,0,0-.2-.36,1.33,1.33,0,0,0-.43-.17,1.86,1.86,0,0,0-.33,0s-.06-.09-.06-.2a.35.35,0,0,1,.06-.24l.77,0c.24,0,.49,0,.76,0h.55l.4,0,.48,0a.55.55,0,0,1,0,.24c0,.12,0,.18,0,.18a2.91,2.91,0,0,0-.42.08.94.94,0,0,0-.51.3,2.68,2.68,0,0,0-.35.6c-.15.31-.28.6-.39.88-.27.67-.51,1.28-.74,1.84s-.44,1.1-.66,1.62L45,26.45q-.35.84-.78,1.86a.88.88,0,0,1-.27.39.46.46,0,0,1-.29.1s0,0-.07-.09a.57.57,0,0,0-.06-.15c-.33-.87-.64-1.68-.92-2.43s-.58-1.52-.87-2.3-.63-1.64-1-2.58c-.11-.29-.22-.55-.32-.78a4.69,4.69,0,0,0-.35-.63.52.52,0,0,0-.27-.19,1.9,1.9,0,0,0-.39-.11l-.27,0s0-.06,0-.2a.66.66,0,0,1,0-.22l.84,0C40.16,19.15,40.44,19.15,40.78,19.15Z"/><path class="cls-2" d="M51,27.08c0,.22,0,.42,0,.61a1.87,1.87,0,0,0,.07.47c0,.05.09.09.22.13a2.23,2.23,0,0,0,.39.09l.3,0a.44.44,0,0,1,.06.21.29.29,0,0,1-.06.21l-.78-.05c-.23,0-.49,0-.77,0s-.54,0-.77,0l-.79.05a.29.29,0,0,1-.06-.21.44.44,0,0,1,.06-.21l.3,0a2.59,2.59,0,0,0,.42-.09c.13,0,.2-.08.21-.13a1.53,1.53,0,0,0,.06-.47c0-.19,0-.39,0-.61V24.35c0-.1,0-.23,0-.39a.92.92,0,0,0-.06-.37c0-.09-.12-.15-.26-.19l-.42-.06H48.9a.76.76,0,0,1,0-.18.31.31,0,0,1,0-.21A8.07,8.07,0,0,0,50,22.72a4.47,4.47,0,0,0,1-.39s.08,0,.12.09a.37.37,0,0,1,0,.15s0,.11,0,.25,0,.28,0,.42a2.52,2.52,0,0,0,0,.29Zm-1.4-7a.72.72,0,0,1,.21-.52.72.72,0,0,1,1,0,.72.72,0,0,1,.21.52.69.69,0,0,1-.21.51.72.72,0,0,1-1,0A.69.69,0,0,1,49.64,20.1Z"/><path class="cls-2" d="M56.59,22.36a2.37,2.37,0,0,1,1.18.28,2.56,2.56,0,0,1,.82.75,3.78,3.78,0,0,1,.48,1,3.52,3.52,0,0,1,.16,1,3.09,3.09,0,0,1-.3,1.34,3.93,3.93,0,0,1-.8,1.13,4,4,0,0,1-1.1.77,2.82,2.82,0,0,1-1.22.28,2.75,2.75,0,0,1-.57-.05,3.3,3.3,0,0,1-.47-.11.36.36,0,0,0-.05.19v2a1.88,1.88,0,0,0,.07.48c0,.05.09.09.22.12a2.36,2.36,0,0,0,.4.08l.31,0a.37.37,0,0,1,.05.22.25.25,0,0,1-.05.21l-.79,0-.78,0-.76,0-.79,0a.25.25,0,0,1-.05-.21.47.47,0,0,1,.05-.22l.3,0a2.7,2.7,0,0,0,.41-.08q.19,0,.21-.12a1.56,1.56,0,0,0,.06-.48c0-.19,0-.4,0-.62v-6c0-.1,0-.23,0-.39a.92.92,0,0,0-.06-.37c0-.09-.12-.15-.26-.19l-.42-.06h-.27a.76.76,0,0,1,0-.18.31.31,0,0,1,0-.21,8.53,8.53,0,0,0,1.12-.22,4.55,4.55,0,0,0,1-.39.11.11,0,0,1,.1.09.26.26,0,0,1,0,.15l-.06.29a1.7,1.7,0,0,0,0,.31s0,.06,0,.06l0,0a3.29,3.29,0,0,1,.49-.36A5.26,5.26,0,0,1,56,22.5,1.86,1.86,0,0,1,56.59,22.36Zm-.63.87a1.7,1.7,0,0,0-.59.1,1.87,1.87,0,0,0-.47.23q-.18.14-.18.24v3.5a.84.84,0,0,0,.23.62,1.33,1.33,0,0,0,.55.35,1.68,1.68,0,0,0,.58.11,1.55,1.55,0,0,0,1-.36,2.44,2.44,0,0,0,.65-.94A3.1,3.1,0,0,0,58,25.93a3,3,0,0,0-.6-2A1.83,1.83,0,0,0,56,23.23Z"/><path class="cls-2" d="M63.32,22.39a1.27,1.27,0,0,1,.78.27,1.93,1.93,0,0,1,.6.72,2.25,2.25,0,0,1,.22,1v3a1.07,1.07,0,0,0,.1.49.38.38,0,0,0,.35.2A.54.54,0,0,0,65.7,28l.15-.11s0,0,0,.05a.25.25,0,0,1,0,.07.55.55,0,0,1-.08.29,3.91,3.91,0,0,1-.71.45.86.86,0,0,1-.38.1.69.69,0,0,1-.56-.31,1.58,1.58,0,0,1-.32-.65l-.28.23-.5.34-.56.3a1.29,1.29,0,0,1-.48.12,1.67,1.67,0,0,1-1.21-.48,1.64,1.64,0,0,1-.5-1.2A1.31,1.31,0,0,1,61.07,26l.94-.32,1-.34.66-.25a.24.24,0,0,0,.15-.12.72.72,0,0,0,0-.26v-.39a1.42,1.42,0,0,0-.16-.65,1.67,1.67,0,0,0-.45-.54,1.08,1.08,0,0,0-.65-.22.64.64,0,0,0-.55.24,1.59,1.59,0,0,0-.26.68c-.09.47-.32.7-.69.7a.39.39,0,0,1-.36-.19.72.72,0,0,1-.13-.42.86.86,0,0,1,0-.17.5.5,0,0,1,.07-.19,5.58,5.58,0,0,1,.65-.5,5,5,0,0,1,.95-.49A2.86,2.86,0,0,1,63.32,22.39Zm-.78,5.71a1.48,1.48,0,0,0,.55-.12,3,3,0,0,0,.51-.26c.14-.1.21-.17.21-.22v-2l-.72.22-.64.21a1.67,1.67,0,0,0-.65.44,1.07,1.07,0,0,0,0,1.41A.92.92,0,0,0,62.54,28.1Z"/><path class="cls-2" d="M68.94,22.37a3.5,3.5,0,0,1,.72.07,6.58,6.58,0,0,0,.78.13c0,.22.08.48.12.77s0,.57,0,.83c0,0,0,.08-.15.08l-.12,0a.31.31,0,0,1-.13-.06,2.54,2.54,0,0,0-.25-.58,1.7,1.7,0,0,0-.42-.53.79.79,0,0,0-.56-.22,1.06,1.06,0,0,0-.78.26.9.9,0,0,0-.25.65,1,1,0,0,0,.18.61,1.56,1.56,0,0,0,.47.4l.62.37.72.44a2.81,2.81,0,0,1,.67.56,1.14,1.14,0,0,1,.29.78A1.83,1.83,0,0,1,70.58,28a2.29,2.29,0,0,1-.82.72,2.45,2.45,0,0,1-1.11.26,3.15,3.15,0,0,1-.87-.1c-.24-.06-.52-.13-.84-.19a3.46,3.46,0,0,1-.12-.45,5.4,5.4,0,0,1-.09-.58,3.28,3.28,0,0,1,0-.48.44.44,0,0,1,.27-.09.21.21,0,0,1,.12,0,2.12,2.12,0,0,0,.31.62,1.92,1.92,0,0,0,.56.54,1.25,1.25,0,0,0,.72.22,1.08,1.08,0,0,0,.75-.27,1,1,0,0,0,.3-.78,1,1,0,0,0-.27-.73,2.76,2.76,0,0,0-.68-.49l-.84-.46a3.55,3.55,0,0,1-.77-.62,1.38,1.38,0,0,1-.34-.95,1.57,1.57,0,0,1,.31-.95,2.1,2.1,0,0,1,.79-.62A2.53,2.53,0,0,1,68.94,22.37Z"/><path class="cls-2" d="M74.33,22.37a3.68,3.68,0,0,1,.73.07,6.36,6.36,0,0,0,.77.13,6.61,6.61,0,0,1,.12.77c0,.3,0,.57.06.83,0,0-.05.08-.15.08l-.13,0a.27.27,0,0,1-.12-.06,3.9,3.9,0,0,0-.25-.58,2,2,0,0,0-.42-.53.81.81,0,0,0-.56-.22,1.06,1.06,0,0,0-.78.26.91.91,0,0,0-.26.65,1,1,0,0,0,.18.61,1.69,1.69,0,0,0,.47.4l.63.37.71.44a2.86,2.86,0,0,1,.68.56,1.13,1.13,0,0,1,.28.78A1.82,1.82,0,0,1,76,28a2.32,2.32,0,0,1-.83.72,2.38,2.38,0,0,1-1.1.26,3.15,3.15,0,0,1-.87-.1c-.24-.06-.52-.13-.84-.19a3.46,3.46,0,0,1-.12-.45c0-.19-.07-.38-.1-.58s0-.36,0-.48a.44.44,0,0,1,.27-.09.21.21,0,0,1,.12,0,2.16,2.16,0,0,0,.32.62,1.89,1.89,0,0,0,.55.54,1.25,1.25,0,0,0,.72.22,1.08,1.08,0,0,0,.75-.27,1,1,0,0,0,.3-.78,1,1,0,0,0-.27-.73,2.7,2.7,0,0,0-.67-.49l-.84-.46a3.33,3.33,0,0,1-.77-.62,1.33,1.33,0,0,1-.34-.95,1.56,1.56,0,0,1,.3-.95,2.1,2.1,0,0,1,.79-.62A2.53,2.53,0,0,1,74.33,22.37Z"/><path class="cls-2" d="M80.4,22.39a1.32,1.32,0,0,1,.79.27,2,2,0,0,1,.59.72,2.25,2.25,0,0,1,.22,1v3a1.07,1.07,0,0,0,.11.49.36.36,0,0,0,.34.2.54.54,0,0,0,.33-.09l.15-.11s0,0,0,.05A.2.2,0,0,1,83,28a.54.54,0,0,1-.07.29l-.29.21a4.49,4.49,0,0,1-.42.24.93.93,0,0,1-.39.1.71.71,0,0,1-.56-.31,1.71,1.71,0,0,1-.32-.65,2.59,2.59,0,0,1-.28.23c-.14.11-.31.22-.5.34l-.56.3a1.25,1.25,0,0,1-.47.12,1.69,1.69,0,0,1-1.22-.48,1.63,1.63,0,0,1-.49-1.2A1.28,1.28,0,0,1,78.15,26l.94-.32,1-.34.65-.25a.24.24,0,0,0,.15-.12.72.72,0,0,0,0-.26v-.39a1.42,1.42,0,0,0-.16-.65,1.67,1.67,0,0,0-.45-.54,1.05,1.05,0,0,0-.64-.22.66.66,0,0,0-.56.24,1.59,1.59,0,0,0-.25.68c-.09.47-.32.7-.69.7a.42.42,0,0,1-.37-.19.8.8,0,0,1-.13-.42.86.86,0,0,1,0-.17.49.49,0,0,1,.08-.19,5.34,5.34,0,0,1,.64-.5,5,5,0,0,1,1-.49A2.9,2.9,0,0,1,80.4,22.39Zm-.78,5.71a1.53,1.53,0,0,0,.56-.12,3.31,3.31,0,0,0,.5-.26c.14-.1.21-.17.21-.22v-2l-.71.22-.65.21a1.63,1.63,0,0,0-.64.44,1,1,0,0,0,0,1.41A.9.9,0,0,0,79.62,28.1Z"/><path class="cls-2" d="M87.89,22.36a1.87,1.87,0,0,1,1.2.33,1.74,1.74,0,0,1,.55,1,9.29,9.29,0,0,1,.14,1.75v1.62c0,.22,0,.42,0,.61a1.5,1.5,0,0,0,.07.47c0,.05.09.09.21.13a2.59,2.59,0,0,0,.4.09l.3,0a.36.36,0,0,1,0,.21.25.25,0,0,1,0,.21L90,28.77c-.22,0-.48,0-.77,0s-.53,0-.76,0l-.8.05a.3.3,0,0,1-.05-.21.46.46,0,0,1,.05-.21l.31,0a2.47,2.47,0,0,0,.41-.09c.13,0,.2-.08.21-.13a1.87,1.87,0,0,0,.07-.47c0-.19,0-.39,0-.61V25.61a6.6,6.6,0,0,0-.12-1.43,1.21,1.21,0,0,0-.44-.74,1.49,1.49,0,0,0-.88-.23,1.21,1.21,0,0,0-.59.18,3.1,3.1,0,0,0-.57.36q-.24.2-.24.27v3.06c0,.22,0,.42,0,.61a1.87,1.87,0,0,0,.07.47c0,.05.09.09.22.13a2.23,2.23,0,0,0,.39.09l.3,0a.44.44,0,0,1,.06.21.29.29,0,0,1-.06.21L86,28.77c-.23,0-.49,0-.77,0s-.54,0-.77,0l-.79.05a.29.29,0,0,1-.06-.21.44.44,0,0,1,.06-.21l.3,0a2.59,2.59,0,0,0,.42-.09c.13,0,.2-.08.21-.13a1.53,1.53,0,0,0,.06-.47c0-.19,0-.39,0-.61V24.41c0-.1,0-.24,0-.42a1,1,0,0,0-.06-.4c0-.09-.12-.15-.26-.19L84,23.34h-.27a.76.76,0,0,1,0-.18.31.31,0,0,1,0-.21,8.07,8.07,0,0,0,1.11-.22,4.27,4.27,0,0,0,1-.39s.08,0,.12.09a.37.37,0,0,1,.05.15s0,.11,0,.23,0,.25,0,.37,0,.2,0,.24,0,.06,0,.06l0,0A4.18,4.18,0,0,1,86.4,23a5.44,5.44,0,0,1,.74-.46A1.76,1.76,0,0,1,87.89,22.36Z"/><path class="cls-2" d="M94.47,22.39a1.32,1.32,0,0,1,.79.27,2,2,0,0,1,.59.72,2.25,2.25,0,0,1,.22,1v3a1.07,1.07,0,0,0,.11.49.36.36,0,0,0,.34.2.54.54,0,0,0,.33-.09L97,27.9s0,0,0,.05a.2.2,0,0,1,0,.07.54.54,0,0,1-.07.29l-.29.21a4.49,4.49,0,0,1-.42.24.93.93,0,0,1-.38.1.72.72,0,0,1-.57-.31A1.71,1.71,0,0,1,95,27.9a2.59,2.59,0,0,1-.28.23c-.14.11-.31.22-.5.34l-.56.3a1.25,1.25,0,0,1-.47.12A1.69,1.69,0,0,1,92,28.41a1.63,1.63,0,0,1-.49-1.2,1.21,1.21,0,0,1,.25-.77,1.17,1.17,0,0,1,.48-.41l.94-.32,1-.34.66-.25a.24.24,0,0,0,.15-.12.72.72,0,0,0,0-.26v-.39a1.43,1.43,0,0,0-.17-.65,1.67,1.67,0,0,0-.45-.54,1.05,1.05,0,0,0-.64-.22.66.66,0,0,0-.56.24,1.59,1.59,0,0,0-.25.68c-.09.47-.32.7-.69.7a.42.42,0,0,1-.37-.19.8.8,0,0,1-.13-.42.86.86,0,0,1,0-.17.49.49,0,0,1,.08-.19,5.34,5.34,0,0,1,.64-.5,5,5,0,0,1,1-.49A2.9,2.9,0,0,1,94.47,22.39Zm-.78,5.71a1.53,1.53,0,0,0,.56-.12,3,3,0,0,0,.51-.26c.14-.1.21-.17.21-.22v-2l-.72.22-.65.21a1.63,1.63,0,0,0-.64.44,1,1,0,0,0,0,1.41A.9.9,0,0,0,93.69,28.1Z"/><path class="cls-2" d="M104,19.15c.25,0,.47,0,.66,0l.53,0c.06.19.17.49.33.89l.59,1.41c.22.55.46,1.12.72,1.73l.77,1.82.69,1.69a.06.06,0,0,0,.06,0s.05,0,.06-.06l.78-2,.69-1.78c.24-.6.5-1.25.77-2,.09-.23.19-.48.29-.75s.22-.61.36-1c.47,0,.85.05,1.15.05l.88,0,.76,0a3.8,3.8,0,0,1,0,.42l-.34,0a3.12,3.12,0,0,0-.44.09.43.43,0,0,0-.25.14A.9.9,0,0,0,113,20c0,.11,0,.21,0,.3q0,.38,0,1.14c0,.51,0,1.08,0,1.71s0,1.26,0,1.88,0,1.17,0,1.65c0,.28,0,.54,0,.79a2.12,2.12,0,0,0,.13.63.35.35,0,0,0,.27.16,3.4,3.4,0,0,0,.46.08l.29,0a.4.4,0,0,1,0,.25.49.49,0,0,1,0,.17l-.85-.05c-.27,0-.57,0-.89,0s-.63,0-.88,0l-.88.05a.38.38,0,0,1,0-.18.43.43,0,0,1,0-.24l.28,0,.39-.06a1.31,1.31,0,0,0,.28-.09c.05,0,.09-.11.11-.25a2.6,2.6,0,0,0,0-.36c0-.11,0-.25,0-.43s0-.31,0-.42c0-.71,0-1.4-.06-2.05s0-1.32-.06-2,0-1.42-.08-2.21a.8.8,0,0,0,0-.16c0-.08,0-.12-.1-.12s0,0-.08.1c-.3.75-.57,1.45-.83,2.08s-.5,1.26-.74,1.86l-.73,1.81-.78,2-.14.24a2.84,2.84,0,0,1-.22.34.33.33,0,0,1-.2.17.12.12,0,0,1-.1,0l0,0-3.57-8.54c0,.64,0,1.3,0,2s0,1.34-.06,2,0,1.21,0,1.73,0,.93,0,1.24,0,.49,0,.52a1.85,1.85,0,0,0,0,.23,1,1,0,0,0,0,.22c0,.07.13.12.3.16a5.07,5.07,0,0,0,.54.09l.33,0a.32.32,0,0,1,0,.22.91.91,0,0,1,0,.2l-.75-.05c-.21,0-.47,0-.79,0s-.63,0-.86,0l-.85.05a.76.76,0,0,1,0-.18.44.44,0,0,1,0-.24l.35,0a4.34,4.34,0,0,0,.52-.09.52.52,0,0,0,.31-.15.83.83,0,0,0,.14-.32c0-.12,0-.26,0-.42,0-.87.06-1.72.08-2.53s0-1.53.06-2.18,0-1.17,0-1.57,0-.64,0-.71,0-.22,0-.32a1.08,1.08,0,0,0,0-.27c0-.06-.11-.11-.25-.16l-.45-.1-.32,0s0-.06,0-.2a.66.66,0,0,1,0-.22l.55,0,.42,0Z"/><path class="cls-2" d="M116.5,25.15a3.22,3.22,0,0,0,.31,1.56,2.22,2.22,0,0,0,.89.93,2.39,2.39,0,0,0,1.2.31,1.9,1.9,0,0,0,.73-.14,2.67,2.67,0,0,0,.56-.33,3.08,3.08,0,0,0,.31-.3l.07.06a.2.2,0,0,1,.05.14.54.54,0,0,1-.09.27,3.16,3.16,0,0,1-.42.5,2.67,2.67,0,0,1-.72.52,2.14,2.14,0,0,1-1,.22,2.78,2.78,0,0,1-2.55-1.5,3.13,3.13,0,0,1-.37-1.54,3.45,3.45,0,0,1,.26-1.37,3.71,3.71,0,0,1,.69-1.11,3.41,3.41,0,0,1,.93-.74,2.11,2.11,0,0,1,1-.27,2.35,2.35,0,0,1,1.09.22,2,2,0,0,1,.67.56,2.12,2.12,0,0,1,.35.66,2.22,2.22,0,0,1,.1.55,1.34,1.34,0,0,1-.08.5.31.31,0,0,1-.28.19c-.09,0-.27,0-.54,0l-.9,0-1,0-.84,0Zm.07-.54H119a.32.32,0,0,0,.34-.35,1.28,1.28,0,0,0-.1-.51,1.63,1.63,0,0,0-.39-.6.93.93,0,0,0-.71-.27,1.09,1.09,0,0,0-.76.27,1.82,1.82,0,0,0-.47.6,2.34,2.34,0,0,0-.24.6A.88.88,0,0,0,116.57,24.61Z"/><path class="cls-2" d="M125.22,22.36a4.4,4.4,0,0,1,.57.05,2.52,2.52,0,0,1,.43.1s.08-.1.08-.3v-1.6c0-.11,0-.25,0-.4a.9.9,0,0,0-.07-.37.37.37,0,0,0-.32-.21,3.56,3.56,0,0,0-.57,0s0-.06,0-.19,0-.19,0-.2a5.85,5.85,0,0,0,1.09-.22,7.24,7.24,0,0,0,1-.37s.08,0,.12.09a.3.3,0,0,1,0,.15,5.3,5.3,0,0,0-.17,1.28v6.26c0,.28,0,.56,0,.85a2.16,2.16,0,0,0,.08.59.4.4,0,0,0,.35.2l.43,0h.07s0,0,0,.09,0,.07,0,.09l0,.12c0,.06,0,.09-.08.09a4.18,4.18,0,0,0-.81.12c-.3.07-.55.14-.76.21l-.33.09s-.07,0-.09-.1a.67.67,0,0,1,0-.18V28.1c0-.09,0-.12,0-.09a2,2,0,0,1-.44.33,4.66,4.66,0,0,1-.74.38,1.84,1.84,0,0,1-.76.17,2.1,2.1,0,0,1-1.25-.41,2.93,2.93,0,0,1-1-1.12,3.4,3.4,0,0,1-.37-1.6,2.71,2.71,0,0,1,.35-1.34,4.25,4.25,0,0,1,.9-1.08,5,5,0,0,1,1.15-.72A2.82,2.82,0,0,1,125.22,22.36Zm-.48.61a1.36,1.36,0,0,0-.95.36,2.15,2.15,0,0,0-.61.9A3.08,3.08,0,0,0,123,25.4a3.35,3.35,0,0,0,.24,1.28,2.28,2.28,0,0,0,.7.94A1.8,1.8,0,0,0,125,28a1.93,1.93,0,0,0,.88-.2q.39-.21.39-.39v-3.7c0-.17-.16-.33-.47-.48A2.39,2.39,0,0,0,124.74,23Z"/><path class="cls-2" d="M131.33,27.08c0,.22,0,.42,0,.61a1.87,1.87,0,0,0,.07.47c0,.05.09.09.22.13a2.23,2.23,0,0,0,.39.09l.3,0a.44.44,0,0,1,.06.21.29.29,0,0,1-.06.21l-.78-.05c-.23,0-.49,0-.77,0s-.54,0-.77,0l-.79.05a.29.29,0,0,1-.06-.21.44.44,0,0,1,.06-.21l.3,0a2.59,2.59,0,0,0,.42-.09c.13,0,.2-.08.21-.13a1.53,1.53,0,0,0,.06-.47c0-.19,0-.39,0-.61V24.35c0-.1,0-.23,0-.39a.92.92,0,0,0-.06-.37c0-.09-.12-.15-.26-.19l-.42-.06h-.27a.76.76,0,0,1,0-.18.31.31,0,0,1,0-.21,8.07,8.07,0,0,0,1.11-.22,4.47,4.47,0,0,0,1-.39s.08,0,.12.09a.37.37,0,0,1,.05.15s0,.11,0,.25,0,.28,0,.42a2.52,2.52,0,0,0,0,.29Zm-1.4-7a.72.72,0,0,1,.21-.52.72.72,0,0,1,1,0,.72.72,0,0,1,.21.52.69.69,0,0,1-.21.51.72.72,0,0,1-1,0A.69.69,0,0,1,129.93,20.1Z"/><path class="cls-2" d="M135,22.45h1.89c.05,0,.07.05.07.16a.63.63,0,0,1-.21.44H135v3.84c0,.79.32,1.19,1,1.19a1.32,1.32,0,0,0,.6-.13,2.4,2.4,0,0,0,.35-.2s0,0,0,.09a.33.33,0,0,1-.06.23,3.27,3.27,0,0,1-.32.31,2.25,2.25,0,0,1-.52.35,1.43,1.43,0,0,1-.66.15,2,2,0,0,1-.72-.14,1.17,1.17,0,0,1-.58-.48,1.76,1.76,0,0,1-.22-1V23.05H133s0,0,0-.05a.51.51,0,0,1,0-.09s0-.06.09-.14l.29-.32h.54v-.91l.35-.39.37-.4.18-.2a.18.18,0,0,1,.14-.06c.05,0,.08,0,.08,0Z"/><path class="cls-2" d="M140.69,22.39a1.3,1.3,0,0,1,.78.27,1.91,1.91,0,0,1,.59.72,2.25,2.25,0,0,1,.23,1v3a1.07,1.07,0,0,0,.1.49.37.37,0,0,0,.35.2.54.54,0,0,0,.33-.09l.15-.11s0,0,0,.05a.25.25,0,0,1,0,.07.55.55,0,0,1-.08.29,2.84,2.84,0,0,1-.29.21,3.5,3.5,0,0,1-.42.24.86.86,0,0,1-.38.1.69.69,0,0,1-.56-.31,1.61,1.61,0,0,1-.33-.65l-.27.23c-.15.11-.32.22-.51.34a6,6,0,0,1-.56.3,1.2,1.2,0,0,1-.47.12,1.67,1.67,0,0,1-1.21-.48,1.64,1.64,0,0,1-.5-1.2,1.27,1.27,0,0,1,.25-.77,1.19,1.19,0,0,1,.49-.41l.93-.32,1-.34.66-.25a.24.24,0,0,0,.15-.12.72.72,0,0,0,0-.26v-.39a1.43,1.43,0,0,0-.17-.65,1.77,1.77,0,0,0-.44-.54,1.08,1.08,0,0,0-.65-.22.64.64,0,0,0-.55.24,1.59,1.59,0,0,0-.26.68c-.09.47-.32.7-.69.7a.39.39,0,0,1-.36-.19.72.72,0,0,1-.13-.42.86.86,0,0,1,0-.17.5.5,0,0,1,.07-.19,5.58,5.58,0,0,1,.65-.5,4.71,4.71,0,0,1,.95-.49A2.86,2.86,0,0,1,140.69,22.39Zm-.78,5.71a1.48,1.48,0,0,0,.55-.12,3,3,0,0,0,.51-.26c.14-.1.21-.17.21-.22v-2l-.72.22-.64.21a1.67,1.67,0,0,0-.65.44,1.07,1.07,0,0,0,0,1.41A.92.92,0,0,0,139.91,28.1Z"/><path class="cls-2" d="M145.8,22.45h1.88s.08.05.08.16a.63.63,0,0,1-.21.44H145.8v3.84c0,.79.32,1.19,1,1.19a1.32,1.32,0,0,0,.6-.13,2.12,2.12,0,0,0,.34-.2s0,0,0,.09a.33.33,0,0,1-.06.23c-.07.08-.18.18-.32.31a2.49,2.49,0,0,1-.52.35,1.45,1.45,0,0,1-.66.15,2.06,2.06,0,0,1-.73-.14,1.2,1.2,0,0,1-.57-.48,1.76,1.76,0,0,1-.23-1V23.05h-.85s0,0,0-.05a.34.34,0,0,1,0-.09s0-.06.09-.14l.28-.32h.54v-.91l.35-.39c.14-.14.26-.28.37-.4l.18-.2a.2.2,0,0,1,.14-.06c.06,0,.09,0,.09,0Z"/><path class="cls-2" d="M150.65,27.08c0,.22,0,.42,0,.61a1.5,1.5,0,0,0,.07.47c0,.05.09.09.21.13a2.59,2.59,0,0,0,.4.09l.3,0a.36.36,0,0,1,.05.21.25.25,0,0,1-.05.21l-.79-.05c-.22,0-.48,0-.77,0s-.53,0-.76,0l-.8.05a.25.25,0,0,1-.05-.21.46.46,0,0,1,.05-.21l.31,0a2.71,2.71,0,0,0,.41-.09c.13,0,.2-.08.21-.13a1.87,1.87,0,0,0,.07-.47c0-.19,0-.39,0-.61V24.35c0-.1,0-.23,0-.39a1.1,1.1,0,0,0-.07-.37c0-.09-.11-.15-.25-.19l-.42-.06h-.27a.76.76,0,0,1,0-.18.31.31,0,0,1,0-.21,8.07,8.07,0,0,0,1.11-.22,4.47,4.47,0,0,0,1-.39s.08,0,.11.09a.29.29,0,0,1,.06.15s0,.11,0,.25,0,.28-.06.42,0,.24,0,.29Zm-1.41-7a.75.75,0,0,1,.74-.74.67.67,0,0,1,.51.22.69.69,0,0,1,.22.52.75.75,0,0,1-.73.73.69.69,0,0,1-.52-.22A.67.67,0,0,1,149.24,20.1Z"/><path class="cls-2" d="M155.65,22.34a3.22,3.22,0,0,1,1.68.42,2.86,2.86,0,0,1,1.07,1.14,3.4,3.4,0,0,1,.39,1.64,3.56,3.56,0,0,1-.41,1.7,3.2,3.2,0,0,1-1.11,1.2,3,3,0,0,1-1.58.44,3.18,3.18,0,0,1-1.68-.43,2.94,2.94,0,0,1-1.09-1.15A3.73,3.73,0,0,1,153,24a3.18,3.18,0,0,1,1.12-1.18A3,3,0,0,1,155.65,22.34Zm-.16.5a1.34,1.34,0,0,0-1,.37,2.08,2.08,0,0,0-.54.94,4.53,4.53,0,0,0,.07,2.62,2.81,2.81,0,0,0,.69,1.16,1.5,1.5,0,0,0,1.11.47,1.33,1.33,0,0,0,1-.37,2.05,2.05,0,0,0,.53-1,4.4,4.4,0,0,0,.17-1.2,4.26,4.26,0,0,0-.24-1.41,3.08,3.08,0,0,0-.69-1.17A1.48,1.48,0,0,0,155.49,22.84Z"/><path class="cls-2" d="M164.11,22.36a1.87,1.87,0,0,1,1.2.33,1.68,1.68,0,0,1,.54,1,8.52,8.52,0,0,1,.14,1.75v1.62c0,.22,0,.42,0,.61a1.87,1.87,0,0,0,.07.47c0,.05.09.09.22.13a2.23,2.23,0,0,0,.39.09l.3,0a.44.44,0,0,1,.06.21.29.29,0,0,1-.06.21l-.78-.05c-.23,0-.48,0-.77,0s-.54,0-.77,0l-.79.05a.25.25,0,0,1-.05-.21.36.36,0,0,1,.05-.21l.3,0a2.59,2.59,0,0,0,.42-.09c.13,0,.2-.08.21-.13a1.53,1.53,0,0,0,.06-.47c0-.19,0-.39,0-.61V25.61a6.6,6.6,0,0,0-.12-1.43,1.21,1.21,0,0,0-.43-.74,1.52,1.52,0,0,0-.89-.23,1.24,1.24,0,0,0-.59.18,3.37,3.37,0,0,0-.56.36q-.24.2-.24.27v3.06c0,.22,0,.42,0,.61a1.53,1.53,0,0,0,.06.47c0,.05.1.09.22.13a2.59,2.59,0,0,0,.4.09l.3,0a.46.46,0,0,1,.05.21.25.25,0,0,1-.05.21l-.79-.05c-.22,0-.48,0-.77,0s-.53,0-.76,0l-.8.05a.25.25,0,0,1,0-.21.36.36,0,0,1,0-.21l.31,0a2.71,2.71,0,0,0,.41-.09c.13,0,.2-.08.21-.13a1.87,1.87,0,0,0,.07-.47V24a1.2,1.2,0,0,0-.07-.4c0-.09-.11-.15-.25-.19l-.42-.06h-.27a.76.76,0,0,1,0-.18.31.31,0,0,1,0-.21,7.65,7.65,0,0,0,1.1-.22,4.55,4.55,0,0,0,1-.39s.08,0,.11.09a.26.26,0,0,1,0,.15,1.34,1.34,0,0,1,0,.23c0,.13,0,.25,0,.37a1.84,1.84,0,0,0,0,.24s0,.06,0,.06l0,0a3.47,3.47,0,0,1,.49-.42,4.89,4.89,0,0,1,.74-.46A1.76,1.76,0,0,1,164.11,22.36Z"/><path class="cls-2" d="M175.06,22.39a1.32,1.32,0,0,1,.79.27,2,2,0,0,1,.59.72,2.25,2.25,0,0,1,.22,1v3a1.07,1.07,0,0,0,.11.49.36.36,0,0,0,.34.2.54.54,0,0,0,.33-.09l.15-.11s0,0,0,.05a.2.2,0,0,1,0,.07.54.54,0,0,1-.07.29l-.29.21a4.49,4.49,0,0,1-.42.24.93.93,0,0,1-.39.1.71.71,0,0,1-.56-.31,1.71,1.71,0,0,1-.32-.65,2.59,2.59,0,0,1-.28.23c-.14.11-.31.22-.5.34l-.56.3a1.25,1.25,0,0,1-.47.12,1.69,1.69,0,0,1-1.22-.48,1.63,1.63,0,0,1-.49-1.2,1.21,1.21,0,0,1,.25-.77,1.17,1.17,0,0,1,.48-.41l.94-.32,1-.34.66-.25c.08,0,.13-.07.14-.12a.51.51,0,0,0,0-.26v-.39a1.43,1.43,0,0,0-.17-.65,1.67,1.67,0,0,0-.45-.54,1.05,1.05,0,0,0-.64-.22.66.66,0,0,0-.56.24,1.59,1.59,0,0,0-.25.68c-.09.47-.32.7-.69.7a.42.42,0,0,1-.37-.19.8.8,0,0,1-.13-.42.86.86,0,0,1,0-.17.49.49,0,0,1,.08-.19,5.34,5.34,0,0,1,.64-.5,5,5,0,0,1,.95-.49A2.9,2.9,0,0,1,175.06,22.39Zm-.78,5.71a1.53,1.53,0,0,0,.56-.12,3,3,0,0,0,.51-.26c.13-.1.21-.17.21-.22v-2l-.72.22-.65.21a1.63,1.63,0,0,0-.64.44,1,1,0,0,0,0,1.41A.9.9,0,0,0,174.28,28.1Z"/><path class="cls-2" d="M180.68,22.37a3.68,3.68,0,0,1,.73.07,6.36,6.36,0,0,0,.77.13,6.61,6.61,0,0,1,.12.77c0,.3,0,.57.06.83,0,0-.05.08-.15.08l-.13,0a.38.38,0,0,1-.13-.06,3,3,0,0,0-.24-.58,2,2,0,0,0-.42-.53.81.81,0,0,0-.56-.22,1.06,1.06,0,0,0-.78.26.91.91,0,0,0-.26.65,1,1,0,0,0,.18.61,1.69,1.69,0,0,0,.47.4l.63.37.71.44a2.86,2.86,0,0,1,.68.56,1.13,1.13,0,0,1,.28.78,1.82,1.82,0,0,1-.31,1.05,2.32,2.32,0,0,1-.83.72,2.41,2.41,0,0,1-1.1.26,3.15,3.15,0,0,1-.87-.1c-.24-.06-.52-.13-.84-.19a3.46,3.46,0,0,1-.12-.45,5.4,5.4,0,0,1-.1-.58,3.28,3.28,0,0,1,0-.48.44.44,0,0,1,.27-.09.21.21,0,0,1,.12,0,2.16,2.16,0,0,0,.32.62,1.89,1.89,0,0,0,.55.54,1.25,1.25,0,0,0,.72.22,1.08,1.08,0,0,0,.75-.27,1,1,0,0,0,.3-.78,1,1,0,0,0-.27-.73,2.7,2.7,0,0,0-.67-.49l-.84-.46a3.61,3.61,0,0,1-.78-.62,1.37,1.37,0,0,1-.33-.95,1.56,1.56,0,0,1,.3-.95,2.1,2.1,0,0,1,.79-.62A2.53,2.53,0,0,1,180.68,22.37Z"/><path class="cls-2" d="M195,19.09a1.83,1.83,0,0,0,.46-.07,2.87,2.87,0,0,0,.42-.14.54.54,0,0,1,.16-.06l.11,0c.05.45.11.89.17,1.31s.14.82.22,1.21l-.11.08a.27.27,0,0,1-.18,0,.24.24,0,0,1-.21-.08,3.41,3.41,0,0,0-.49-1.27,1,1,0,0,0-.9-.51h-1.86v7.46c0,.22,0,.42,0,.61a1.87,1.87,0,0,0,.07.47c0,.05.1.09.24.13a3.12,3.12,0,0,0,.44.09l.32,0a.36.36,0,0,1,.05.21.25.25,0,0,1-.05.21l-.86-.05c-.27,0-.56,0-.85,0l-.85,0-.88.05a.29.29,0,0,1-.06-.21.44.44,0,0,1,.06-.21l.33,0a3.26,3.26,0,0,0,.45-.09c.15,0,.22-.08.23-.13a1.5,1.5,0,0,0,.07-.47c0-.19,0-.39,0-.61V19.62h-1.89a1,1,0,0,0-.9.51,3.59,3.59,0,0,0-.51,1.27.23.23,0,0,1-.21.08.24.24,0,0,1-.17,0l-.1-.08c.08-.39.15-.79.21-1.21s.12-.86.17-1.31a.28.28,0,0,1,.18,0,.5.5,0,0,1,.16,0l.38.13a1.91,1.91,0,0,0,.43.06Z"/><path class="cls-2" d="M199,22.39a1.32,1.32,0,0,1,.79.27,2,2,0,0,1,.59.72,2.25,2.25,0,0,1,.23,1v3a1.07,1.07,0,0,0,.1.49.36.36,0,0,0,.34.2.54.54,0,0,0,.33-.09l.15-.11s0,0,0,.05a.2.2,0,0,1,0,.07.54.54,0,0,1-.07.29l-.29.21a4.49,4.49,0,0,1-.42.24.9.9,0,0,1-.38.1.72.72,0,0,1-.57-.31,1.71,1.71,0,0,1-.32-.65,2.59,2.59,0,0,1-.28.23c-.14.11-.31.22-.5.34l-.56.3a1.25,1.25,0,0,1-.47.12,1.69,1.69,0,0,1-1.22-.48,1.63,1.63,0,0,1-.49-1.2,1.21,1.21,0,0,1,.25-.77,1.17,1.17,0,0,1,.48-.41l.94-.32,1-.34.66-.25a.24.24,0,0,0,.15-.12.72.72,0,0,0,0-.26v-.39a1.43,1.43,0,0,0-.17-.65,1.67,1.67,0,0,0-.45-.54,1.05,1.05,0,0,0-.64-.22.66.66,0,0,0-.56.24,1.59,1.59,0,0,0-.25.68c-.09.47-.32.7-.69.7a.42.42,0,0,1-.37-.19.8.8,0,0,1-.13-.42.86.86,0,0,1,0-.17.49.49,0,0,1,.08-.19,5.34,5.34,0,0,1,.64-.5,4.8,4.8,0,0,1,1-.49A2.81,2.81,0,0,1,199,22.39Zm-.78,5.71a1.53,1.53,0,0,0,.56-.12,3,3,0,0,0,.51-.26c.14-.1.21-.17.21-.22v-2l-.72.22-.65.21a1.63,1.63,0,0,0-.64.44,1,1,0,0,0,0,1.41A.9.9,0,0,0,198.24,28.1Z"/><path class="cls-2" d="M206.9,24.1V24c0-.1,0-.22,0-.37a1,1,0,0,0-.09-.37.48.48,0,0,0-.39-.25A3.32,3.32,0,0,0,206,23s0-.07,0-.17a.24.24,0,0,1,0-.2c.38,0,.74-.06,1.09-.11a6,6,0,0,0,.91-.19s.08.05.11.15a.8.8,0,0,1,0,.21,1.07,1.07,0,0,0-.06.36,5.22,5.22,0,0,0,0,.58v3.08c0,.08,0,.23,0,.47a4.31,4.31,0,0,0,.07.65c0,.12.14.19.34.21l.44,0H209s0,0,0,.08,0,.07,0,.09a.9.9,0,0,1,0,.12c0,.07-.05.1-.09.1a4.28,4.28,0,0,0-.82.12c-.29.07-.55.14-.76.21l-.33.09s-.07,0-.09-.08a.45.45,0,0,1,0-.16V28s0-.07,0-.08a3.36,3.36,0,0,1-.54.45,3.44,3.44,0,0,1-.74.38,2.24,2.24,0,0,1-.78.15,1.49,1.49,0,0,1-.95-.28,1.74,1.74,0,0,1-.55-.72,3.25,3.25,0,0,1-.26-.95,6.61,6.61,0,0,1-.07-1V24.1c0-.1,0-.23,0-.39a1,1,0,0,0-.1-.41.48.48,0,0,0-.39-.25A3.25,3.25,0,0,0,202,23s0-.07,0-.17a.29.29,0,0,1,0-.2c.38,0,.75-.06,1.1-.11a6,6,0,0,0,.91-.19s.08,0,.11.12a.46.46,0,0,1,.06.18,1.31,1.31,0,0,0-.08.39,6.08,6.08,0,0,0,0,.61v2.16a3.33,3.33,0,0,0,.35,1.72,1.25,1.25,0,0,0,1.12.54,1.58,1.58,0,0,0,1.13-.45.51.51,0,0,0,.2-.36Z"/><path class="cls-2" d="M213.72,27.8a2.87,2.87,0,0,1,1.1.21,2.23,2.23,0,0,1,.84.55,1.08,1.08,0,0,1,.32.77,1.76,1.76,0,0,1-.3.93,3.86,3.86,0,0,1-.83.9,4.64,4.64,0,0,1-1.22.68,4.14,4.14,0,0,1-1.45.26,4,4,0,0,1-1.17-.19,2.35,2.35,0,0,1-1-.6,1.34,1.34,0,0,1-.39-1,.9.9,0,0,1,.28-.63,3.53,3.53,0,0,1,.66-.54c.25-.16.45-.28.61-.36a2.66,2.66,0,0,1-.53-.27,1.71,1.71,0,0,1-.47-.46,1.07,1.07,0,0,1-.19-.64,5,5,0,0,1,.38-.35l.49-.38a4.41,4.41,0,0,1,.39-.25,2.39,2.39,0,0,1-.88-.82,1.9,1.9,0,0,1-.34-1.06,2,2,0,0,1,.32-1.08,2.43,2.43,0,0,1,.89-.82,2.51,2.51,0,0,1,1.26-.32,2.37,2.37,0,0,1,.81.13l.53.2.21.08.12,0,1.57-.23c.09,0,.14.08.14.15a.88.88,0,0,1-.11.31.64.64,0,0,1-.22.29l-.41,0c-.15,0-.33,0-.55,0,0,0-.06,0-.06.05a2.77,2.77,0,0,1,.23.44,2.24,2.24,0,0,1,.17.89,1.88,1.88,0,0,1-.32,1,2.49,2.49,0,0,1-.89.81,2.42,2.42,0,0,1-1.26.33,2.68,2.68,0,0,1-.45-.05,2.39,2.39,0,0,1-.38-.09,1.59,1.59,0,0,0-.36.28.54.54,0,0,0-.18.36c0,.07.08.18.23.32a.93.93,0,0,0,.66.21Zm-.67,1h-.44l-.59,0a1.19,1.19,0,0,0-.34.05,4.77,4.77,0,0,0-.55.42.73.73,0,0,0-.31.55,1.54,1.54,0,0,0,.5,1.18,2.06,2.06,0,0,0,1.44.47,2.5,2.5,0,0,0,1-.22,2.68,2.68,0,0,0,.86-.59A1.08,1.08,0,0,0,215,30a.79.79,0,0,0-.19-.47,1.55,1.55,0,0,0-.62-.46A2.67,2.67,0,0,0,213.05,28.83Zm-.59-6a1,1,0,0,0-.7.26,1.63,1.63,0,0,0-.44.64,2.46,2.46,0,0,0-.14.81,2.35,2.35,0,0,0,.16.87,1.72,1.72,0,0,0,.48.69,1.12,1.12,0,0,0,.76.27,1,1,0,0,0,.69-.25,1.59,1.59,0,0,0,.42-.63,2.29,2.29,0,0,0,.14-.78,2.64,2.64,0,0,0-.15-.89,1.73,1.73,0,0,0-.45-.71A1.12,1.12,0,0,0,212.46,22.79Z"/><path class="cls-2" d="M220.63,22.36a1.87,1.87,0,0,1,1.2.33,1.74,1.74,0,0,1,.55,1,9.29,9.29,0,0,1,.14,1.75v1.62c0,.22,0,.42,0,.61a1.53,1.53,0,0,0,.06.47c0,.05.1.09.22.13a2.47,2.47,0,0,0,.41.09l.3,0a.36.36,0,0,1,0,.21.25.25,0,0,1,0,.21l-.79-.05q-.34,0-.78,0c-.28,0-.53,0-.76,0l-.78.05a.29.29,0,0,1-.06-.21.44.44,0,0,1,.06-.21l.29,0a2.47,2.47,0,0,0,.41-.09c.13,0,.2-.08.21-.13a1.87,1.87,0,0,0,.07-.47V25.61a6.6,6.6,0,0,0-.12-1.43,1.21,1.21,0,0,0-.43-.74,1.49,1.49,0,0,0-.88-.23,1.27,1.27,0,0,0-.6.18,3.37,3.37,0,0,0-.56.36q-.24.2-.24.27v3.06c0,.22,0,.42,0,.61a1.5,1.5,0,0,0,.07.47c0,.05.09.09.21.13a2.47,2.47,0,0,0,.41.09l.31,0a.46.46,0,0,1,.05.21.3.3,0,0,1-.05.21l-.8-.05q-.35,0-.78,0t-.75,0l-.79.05a.25.25,0,0,1,0-.21.36.36,0,0,1,0-.21l.3,0a2.59,2.59,0,0,0,.4-.09c.13,0,.2-.08.21-.13a1.5,1.5,0,0,0,.07-.47c0-.19,0-.39,0-.61V20.61c0-.1,0-.23,0-.39a1,1,0,0,0-.07-.38c0-.11-.14-.18-.32-.21a3.28,3.28,0,0,0-.56,0s0-.06,0-.19,0-.19,0-.2a5.59,5.59,0,0,0,1.08-.22,7.24,7.24,0,0,0,1-.37s.08,0,.11.09a.24.24,0,0,1,.06.15,5.3,5.3,0,0,0-.17,1.28v3.31s0,0,.05,0l0,0a3.47,3.47,0,0,1,.49-.42,4.89,4.89,0,0,1,.74-.46A1.76,1.76,0,0,1,220.63,22.36Z"/><path class="cls-2" d="M226,22.45h1.89s.07.05.07.16a.63.63,0,0,1-.21.44H226v3.84c0,.79.32,1.19,1,1.19a1.32,1.32,0,0,0,.6-.13,2.4,2.4,0,0,0,.35-.2s0,0,0,.09a.33.33,0,0,1-.06.23,3.27,3.27,0,0,1-.32.31,2.25,2.25,0,0,1-.52.35,1.45,1.45,0,0,1-.66.15,2,2,0,0,1-.72-.14,1.17,1.17,0,0,1-.58-.48,1.76,1.76,0,0,1-.22-1V23.05H224s0,0,0-.05a.51.51,0,0,1,0-.09s0-.06.09-.14l.29-.32h.54v-.91l.35-.39.37-.4.17-.2a.2.2,0,0,1,.15-.06s.08,0,.08,0Z"/><path class="cls-2" d="M235.68,28.88a2.79,2.79,0,0,1-.51-.08l-.57-.15-.12,0a2.71,2.71,0,0,0-.41-.09.76.76,0,0,0-.42,0s-.08,0-.13-.12a.55.55,0,0,1-.06-.19,1.93,1.93,0,0,0,.14-.54c0-.21,0-.39,0-.54V20.61c0-.1,0-.23,0-.39a1.17,1.17,0,0,0-.07-.38q-.06-.16-.33-.21a3.48,3.48,0,0,0-.57,0s0-.06,0-.19,0-.19,0-.2a5.59,5.59,0,0,0,1.08-.22,6.91,6.91,0,0,0,1-.37s.08,0,.11.09a.24.24,0,0,1,.06.15,5.3,5.3,0,0,0-.17,1.28V23a.78.78,0,0,0,0,.14c0,.05,0,.05.07,0a5,5,0,0,1,.44-.27,5.58,5.58,0,0,1,.69-.36,1.58,1.58,0,0,1,.64-.16,2.29,2.29,0,0,1,1.16.28,2.54,2.54,0,0,1,.84.72,3.39,3.39,0,0,1,.21,3.76,3.52,3.52,0,0,1-1.29,1.28A3.6,3.6,0,0,1,235.68,28.88Zm.23-5.65a1.76,1.76,0,0,0-.62.14,1.64,1.64,0,0,0-.45.25.23.23,0,0,0-.08.16v3.55a.83.83,0,0,0,.21.56,1.45,1.45,0,0,0,.53.37,1.67,1.67,0,0,0,.62.12,1.5,1.5,0,0,0,1-.36,2.74,2.74,0,0,0,.71-.93,2.65,2.65,0,0,0,.27-1.15,3,3,0,0,0-.59-2A1.93,1.93,0,0,0,235.91,23.23Z"/><path class="cls-2" d="M241.35,22.55c.28,0,.57,0,.85,0l.62,0a.51.51,0,0,1,0,.24c0,.12,0,.18-.08.18h-.22a1.86,1.86,0,0,0-.34.07c-.1,0-.16.09-.16.17a.14.14,0,0,0,0,.06l1.56,4,.43-1.15.42-1.08c.15-.39.3-.76.44-1.1a.84.84,0,0,0,.07-.26,1.91,1.91,0,0,0,0-.2.38.38,0,0,0-.24-.35,1.16,1.16,0,0,0-.6-.13s-.06-.06-.06-.18a.35.35,0,0,1,.06-.24l.51,0q.36,0,.81,0c.28,0,.51,0,.71,0l.51,0a.38.38,0,0,1,0,.24c0,.12,0,.18-.07.18l-.25,0a1.93,1.93,0,0,0-.39.15.65.65,0,0,0-.29.32c-.22.52-.42,1-.59,1.41s-.35.82-.51,1.22-.34.8-.51,1.23-.37.89-.58,1.41-.35.9-.52,1.35a6.25,6.25,0,0,1-.65,1.26,2.05,2.05,0,0,1-.57.6,1.27,1.27,0,0,1-.7.23.76.76,0,0,1-.42-.13.52.52,0,0,1-.21-.5.75.75,0,0,1,.05-.26.7.7,0,0,1,.12-.18,3.62,3.62,0,0,0,.6,0,1,1,0,0,0,.51-.21,2.74,2.74,0,0,0,.55-.57,3.34,3.34,0,0,0,.27-.49l.28-.62a3.59,3.59,0,0,0,.14-.38c-.27-.7-.53-1.35-.77-1.95s-.48-1.2-.72-1.79-.52-1.18-.81-1.8a.42.42,0,0,0-.37-.26,2.51,2.51,0,0,0-.4,0h0s0-.07,0-.2a.61.61,0,0,1,0-.22l.61,0C240.77,22.54,241.05,22.55,241.35,22.55Z"/><path class="cls-2" d="M254.93,19a4.07,4.07,0,0,1,.77.06,4.75,4.75,0,0,1,.63.14l.8.21q.09.57.15,1.17c0,.41.05.71.06.91s0,.09-.1.11a.58.58,0,0,1-.2,0,.21.21,0,0,1-.16-.06,2.36,2.36,0,0,0-.18-.63,3.06,3.06,0,0,0-.41-.69,2.55,2.55,0,0,0-.63-.55,1.65,1.65,0,0,0-.83-.21,1.58,1.58,0,0,0-1,.25,1.43,1.43,0,0,0-.49.63,2,2,0,0,0-.15.74,1.54,1.54,0,0,0,.3,1,3.27,3.27,0,0,0,.78.69l1,.61.79.5a8,8,0,0,1,.84.6,2.92,2.92,0,0,1,.66.75,1.87,1.87,0,0,1,.25,1,2.27,2.27,0,0,1-.44,1.4,2.94,2.94,0,0,1-1.14.95,3.36,3.36,0,0,1-1.47.33,6,6,0,0,1-1.42-.16c-.45-.11-.86-.2-1.22-.27-.06-.29-.11-.6-.16-.93s-.08-.62-.1-.87,0-.4,0-.46a.7.7,0,0,1,.17-.13.37.37,0,0,1,.2-.05.16.16,0,0,1,.17.13,3.76,3.76,0,0,0,.19.58,3.18,3.18,0,0,0,.42.75,2.37,2.37,0,0,0,.71.66,2.22,2.22,0,0,0,1.11.26A1.76,1.76,0,0,0,256,28a1.71,1.71,0,0,0,.53-1.33,1.46,1.46,0,0,0-.28-1,2.4,2.4,0,0,0-.72-.6l-1-.54c-.37-.22-.75-.46-1.15-.72a4.23,4.23,0,0,1-1-.94,2.08,2.08,0,0,1-.41-1.27,2.24,2.24,0,0,1,.42-1.36,2.66,2.66,0,0,1,1.07-.89A3.18,3.18,0,0,1,254.93,19Z"/><path class="cls-2" d="M259.16,28.11a.76.76,0,0,1,.24-.56.85.85,0,0,1,.58-.23.77.77,0,0,1,.78.79.82.82,0,0,1-.22.58.72.72,0,0,1-.56.25.79.79,0,0,1-.58-.25A.8.8,0,0,1,259.16,28.11Z"/><path class="cls-2" d="M264.57,19.11h.64l.47,0c.15.23.39.56.72,1s.71.89,1.15,1.43l1.36,1.65c.47.57.93,1.13,1.37,1.69s.82,1.06,1.13,1.51V20.8c0-.26,0-.46,0-.61a.94.94,0,0,0-.13-.41.5.5,0,0,0-.28-.14l-.47-.11-.36,0a.34.34,0,0,1-.06-.22,1.78,1.78,0,0,1,0-.2l.81,0,.86,0h.57l.45,0,.56,0a.6.6,0,0,1,0,.18.41.41,0,0,1,0,.24l-.35,0a3.86,3.86,0,0,0-.51.09.57.57,0,0,0-.3.16.81.81,0,0,0-.12.38c0,.14,0,.35,0,.63v6.68c0,.21,0,.41,0,.61s0,.42,0,.68c0,0,0,.06-.09.07l-.11,0a.6.6,0,0,1-.2-.08,1.18,1.18,0,0,1-.31-.27L265,20.44V27.1c0,.25,0,.46,0,.6a1,1,0,0,0,.13.4.46.46,0,0,0,.26.14,3.23,3.23,0,0,0,.47.11,2.29,2.29,0,0,0,.36,0,.28.28,0,0,1,.06.21,1.06,1.06,0,0,1,0,.21l-.81-.05c-.25,0-.54,0-.86,0l-.56,0-.45,0-.56,0a.56.56,0,0,1-.05-.18.42.42,0,0,1,.05-.24,2.17,2.17,0,0,0,.34,0,4,4,0,0,0,.5-.1c.17-.05.27-.1.3-.16a.77.77,0,0,0,.12-.37,4.57,4.57,0,0,0,0-.62V20.76a4.85,4.85,0,0,0,0-.63.81.81,0,0,0-.12-.38q0-.09-.3-.15a2.77,2.77,0,0,0-.5-.1l-.34,0a.42.42,0,0,1-.05-.24.56.56,0,0,1,.05-.18l.82,0Z"/><path class="cls-2" d="M274.52,28.11a.76.76,0,0,1,.24-.56.85.85,0,0,1,.58-.23.77.77,0,0,1,.78.79.82.82,0,0,1-.22.58.72.72,0,0,1-.56.25.79.79,0,0,1-.58-.25A.8.8,0,0,1,274.52,28.11Z"/><path class="cls-2" d="M289,26.21V26c0-.19,0-.36,0-.52a1.85,1.85,0,0,0,0-.38c0-.06-.09-.11-.24-.14a3.11,3.11,0,0,0-.44-.08l-.33,0a.46.46,0,0,1-.05-.21.3.3,0,0,1,.05-.21l.87.05q.42,0,.84,0c.29,0,.56,0,.82,0l.83-.05a.25.25,0,0,1,.05.21.36.36,0,0,1-.05.21l-.31,0a2.41,2.41,0,0,0-.42.08c-.13,0-.21.08-.23.14a1.87,1.87,0,0,0-.07.47v1.64a.7.7,0,0,0,.07.36.46.46,0,0,1,.08.24.16.16,0,0,1-.05.11,1.29,1.29,0,0,1-.24.15c-.21.11-.45.22-.73.34a4.75,4.75,0,0,1-1,.3,8.7,8.7,0,0,1-1.6.12,4.88,4.88,0,0,1-2-.38,4.67,4.67,0,0,1-1.56-1.05,4.77,4.77,0,0,1-1-1.53,4.85,4.85,0,0,1-.35-1.83,5.19,5.19,0,0,1,1.39-3.55,4.76,4.76,0,0,1,1.57-1.11,5,5,0,0,1,2-.39c.48,0,1,0,1.51.06a11.25,11.25,0,0,1,1.6.24c.07.41.12.75.16,1s.08.53.11.75.06.36.06.4,0,.08-.09.12a.46.46,0,0,1-.23.06.34.34,0,0,1-.18,0c0-.11-.07-.28-.14-.51a2.43,2.43,0,0,0-.41-.72,2.18,2.18,0,0,0-.84-.64,3.4,3.4,0,0,0-1.47-.26,3,3,0,0,0-1.47.36,3.69,3.69,0,0,0-1.13,1,4.55,4.55,0,0,0-.72,1.38,4.75,4.75,0,0,0-.25,1.52,6,6,0,0,0,.24,1.68,4.54,4.54,0,0,0,.7,1.49A3.56,3.56,0,0,0,285.49,28a3.43,3.43,0,0,0,1.67.39,3.22,3.22,0,0,0,1-.15c.29-.11.55-.22.77-.33.05,0,.07,0,.08-.08s0-.08,0-.13Z"/><path class="cls-2" d="M295.47,22.34a3.21,3.21,0,0,1,1.67.42,3,3,0,0,1,1.08,1.14,3.51,3.51,0,0,1,.38,1.64,3.56,3.56,0,0,1-.41,1.7,3.2,3.2,0,0,1-1.11,1.2,3,3,0,0,1-1.58.44,3.18,3.18,0,0,1-1.68-.43,2.94,2.94,0,0,1-1.09-1.15,3.73,3.73,0,0,1,0-3.34,3.18,3.18,0,0,1,1.12-1.18A3,3,0,0,1,295.47,22.34Zm-.17.5a1.34,1.34,0,0,0-1,.37,2.08,2.08,0,0,0-.54.94,4.37,4.37,0,0,0-.16,1.21,4.62,4.62,0,0,0,.23,1.41,2.81,2.81,0,0,0,.69,1.16,1.51,1.51,0,0,0,1.12.47,1.3,1.3,0,0,0,1-.37,2.05,2.05,0,0,0,.53-1,4.4,4.4,0,0,0,.17-1.2,4.26,4.26,0,0,0-.24-1.41,3.08,3.08,0,0,0-.69-1.17A1.48,1.48,0,0,0,295.3,22.84Z"/><path class="cls-2" d="M300.82,25.15a3.22,3.22,0,0,0,.31,1.56,2.26,2.26,0,0,0,.88.93,2.39,2.39,0,0,0,1.2.31,2,2,0,0,0,.74-.14,2.58,2.58,0,0,0,.55-.33,3.49,3.49,0,0,0,.32-.3s0,0,.06.06a.17.17,0,0,1,.06.14.54.54,0,0,1-.09.27,3.16,3.16,0,0,1-.42.5,2.67,2.67,0,0,1-.72.52,2.18,2.18,0,0,1-1,.22,2.82,2.82,0,0,1-1.51-.4,2.87,2.87,0,0,1-1-1.1,3.14,3.14,0,0,1-.38-1.54,3.63,3.63,0,0,1,.26-1.37,4.16,4.16,0,0,1,.69-1.11,3.61,3.61,0,0,1,.94-.74,2.11,2.11,0,0,1,1-.27,2.28,2.28,0,0,1,1.08.22,2,2,0,0,1,.68.56,2.08,2.08,0,0,1,.34.66,1.84,1.84,0,0,1,.1.55,1.36,1.36,0,0,1-.07.5.31.31,0,0,1-.29.19l-.53,0-.91,0-1,0-.84,0Zm.07-.54h2.38a.41.41,0,0,0,.24-.08.38.38,0,0,0,.11-.27,1.33,1.33,0,0,0-.11-.51,1.61,1.61,0,0,0-.38-.6.93.93,0,0,0-.71-.27,1.11,1.11,0,0,0-.77.27,2,2,0,0,0-.47.6,3.4,3.4,0,0,0-.24.6A1,1,0,0,0,300.89,24.61Z"/><path class="cls-2" d="M310.2,22.36a1.87,1.87,0,0,1,1.2.33,1.73,1.73,0,0,1,.54,1,8.52,8.52,0,0,1,.14,1.75v1.62c0,.22,0,.42,0,.61a1.87,1.87,0,0,0,.07.47c0,.05.09.09.22.13a2.23,2.23,0,0,0,.39.09l.3,0a.44.44,0,0,1,.06.21.29.29,0,0,1-.06.21l-.78-.05c-.23,0-.49,0-.77,0s-.54,0-.77,0l-.79.05a.29.29,0,0,1-.06-.21.44.44,0,0,1,.06-.21l.3,0a2.59,2.59,0,0,0,.42-.09c.13,0,.2-.08.21-.13a1.53,1.53,0,0,0,.06-.47c0-.19,0-.39,0-.61V25.61a6.6,6.6,0,0,0-.12-1.43,1.21,1.21,0,0,0-.43-.74,1.52,1.52,0,0,0-.89-.23,1.24,1.24,0,0,0-.59.18,3.37,3.37,0,0,0-.56.36q-.24.2-.24.27v3.06c0,.22,0,.42,0,.61a1.53,1.53,0,0,0,.06.47c0,.05.1.09.22.13a2.59,2.59,0,0,0,.4.09l.3,0a.46.46,0,0,1,.05.21.3.3,0,0,1-.05.21l-.79-.05c-.22,0-.48,0-.77,0s-.54,0-.77,0l-.79.05a.25.25,0,0,1-.05-.21.36.36,0,0,1,.05-.21l.31,0a2.71,2.71,0,0,0,.41-.09c.13,0,.2-.08.21-.13a1.87,1.87,0,0,0,.07-.47V24a1.2,1.2,0,0,0-.07-.4c0-.09-.12-.15-.26-.19a2.9,2.9,0,0,0-.41-.06H306s0-.08,0-.18a.32.32,0,0,1,0-.21,8.07,8.07,0,0,0,1.11-.22,4.55,4.55,0,0,0,1-.39s.08,0,.11.09a.26.26,0,0,1,.05.15,1.34,1.34,0,0,1,0,.23c0,.13,0,.25,0,.37a1.84,1.84,0,0,0,0,.24s0,.06,0,.06l.05,0a3.47,3.47,0,0,1,.49-.42,4.89,4.89,0,0,1,.74-.46A1.76,1.76,0,0,1,310.2,22.36Z"/><path class="cls-2" d="M315.68,27.08c0,.22,0,.42,0,.61a1.5,1.5,0,0,0,.07.47c0,.05.09.09.21.13a2.47,2.47,0,0,0,.41.09l.31,0a.64.64,0,0,1,.05.21.36.36,0,0,1-.05.21l-.8-.05q-.34,0-.78,0t-.75,0l-.79.05a.25.25,0,0,1-.05-.21.36.36,0,0,1,.05-.21l.3,0a2.59,2.59,0,0,0,.4-.09c.13,0,.2-.08.21-.13a1.87,1.87,0,0,0,.07-.47c0-.19,0-.39,0-.61V20.61c0-.11,0-.25,0-.4a1.1,1.1,0,0,0-.07-.37.37.37,0,0,0-.32-.21,3.36,3.36,0,0,0-.56,0s0-.06,0-.19,0-.19,0-.2a5.59,5.59,0,0,0,1.08-.22,7.24,7.24,0,0,0,1-.37s.08,0,.11.09a.24.24,0,0,1,.06.15,5.3,5.3,0,0,0-.17,1.28v5.21a2.32,2.32,0,0,0,.52-.33l.7-.57c.37-.32.69-.58,1-.79s.38-.35.38-.42a.18.18,0,0,0-.14-.17,1.55,1.55,0,0,0-.31-.06l-.24,0a.33.33,0,0,1-.05-.24q0-.16.06-.18l.69.06.72,0a9.24,9.24,0,0,0,1.29-.08.41.41,0,0,1,0,.22.51.51,0,0,1,0,.2,2.64,2.64,0,0,0-.52.09,1.84,1.84,0,0,0-.6.26l-.32.22-.6.45-.74.57-.71.57c.37.39.73.79,1.09,1.19l1,1.07c.28.3.48.5.59.6a1.58,1.58,0,0,0,.66.33,2.47,2.47,0,0,0,.67.08.32.32,0,0,1,0,.16.44.44,0,0,1,0,.18,1.78,1.78,0,0,1-.36.06,5.68,5.68,0,0,1-.59,0,2.58,2.58,0,0,1-1.14-.23,2.15,2.15,0,0,1-.66-.41l-.73-.79-.69-.74-.67-.73a.61.61,0,0,0-.23-.14Z"/><path class="cls-2" d="M324.34,22.39a1.32,1.32,0,0,1,.79.27,2,2,0,0,1,.59.72,2.25,2.25,0,0,1,.23,1v3a1.07,1.07,0,0,0,.1.49.36.36,0,0,0,.35.2.56.56,0,0,0,.33-.09l.14-.11s0,0,.05.05a.2.2,0,0,1,0,.07.54.54,0,0,1-.07.29l-.29.21a4.49,4.49,0,0,1-.42.24.9.9,0,0,1-.38.1.72.72,0,0,1-.57-.31,1.71,1.71,0,0,1-.32-.65,2.59,2.59,0,0,1-.28.23c-.14.11-.31.22-.5.34s-.37.21-.56.3a1.2,1.2,0,0,1-.47.12,1.65,1.65,0,0,1-1.21-.48,1.6,1.6,0,0,1-.5-1.2,1.21,1.21,0,0,1,.25-.77,1.17,1.17,0,0,1,.48-.41l.94-.32,1-.34.66-.25a.24.24,0,0,0,.15-.12.72.72,0,0,0,0-.26v-.39a1.43,1.43,0,0,0-.17-.65,1.67,1.67,0,0,0-.45-.54,1.05,1.05,0,0,0-.64-.22.66.66,0,0,0-.56.24,1.59,1.59,0,0,0-.25.68c-.09.47-.32.7-.69.7a.42.42,0,0,1-.37-.19.8.8,0,0,1-.13-.42.86.86,0,0,1,0-.17.49.49,0,0,1,.08-.19,5.34,5.34,0,0,1,.64-.5,4.8,4.8,0,0,1,1-.49A2.81,2.81,0,0,1,324.34,22.39Zm-.78,5.71a1.53,1.53,0,0,0,.56-.12,3,3,0,0,0,.51-.26c.14-.1.21-.17.21-.22v-2l-.72.22-.65.21a1.63,1.63,0,0,0-.64.44,1,1,0,0,0,0,1.41A.9.9,0,0,0,323.56,28.1Z"/></g></g></svg>